<svg id="Layer_1" enable-background="new 0 0 512.05 512.05" height="512" viewBox="0 0 512.05 512.05" width="512" xmlns="http://www.w3.org/2000/svg"><g><g><path d="m376.377 339.493c-7.878 0-15.824-2.378-22.69-7.321-8.41-6.055-13.964-15.054-15.64-25.34-1.675-10.287.737-20.583 6.792-28.992l96.71-134.33c12.54-17.418 36.915-21.387 54.332-8.848 17.419 12.541 21.388 36.915 8.848 54.333l-96.71 134.33c-7.597 10.552-19.537 16.168-31.642 16.168z" fill="#007a9f"/></g><path d="m326.41 100.869c.008-.203.014-.407.018-.611l.002-.106c.119-4.053-1.408-7.98-4.232-10.89-2.824-2.908-6.706-4.55-10.761-4.55h-296.389c-4.051 0-7.929 1.648-10.753 4.553-2.824 2.903-4.354 6.837-4.24 10.886l.002.107c.004.204.01.408.018.611l-.026 106.157 8.866 30.414-8.876 10.158-.014 59.614c0 1.788.318 3.561.942 5.235 15.086 40.537 94.694 59 162.275 59 67.582 0 147.19-18.463 162.275-59 .624-1.675.942-3.448.942-5.235l-.014-60.022-11.148-11.793 11.138-29.358z" fill="#f6efea"/><path d="m326.446 247.19-11.148-11.793 11.138-29.358-.025-105.17c.008-.203.014-.407.018-.611l.002-.106c.119-4.053-1.408-7.98-4.232-10.89-2.824-2.908-6.706-4.55-10.761-4.55h-148.196v286.735c67.582 0 147.19-18.463 162.275-59 .624-1.675.942-3.448.942-5.235z" fill="#eee1dc"/><path d="m326.446 247.19-.01-41.151c-6.091 10.172-20.37 20.455-40.709 28.914-32.555 13.54-76.163 20.996-122.794 20.996-46.11 0-89.381-7.317-121.841-20.604-20.145-8.245-34.525-18.303-41.043-28.32l-.01 40.572c8.438 5.672 18.363 10.877 29.689 15.513 35.982 14.728 83.288 22.839 133.205 22.839 50.493 0 98.193-8.273 134.314-23.297 11.15-4.637 20.907-9.823 29.199-15.462z" fill="#eee1dc"/><path d="m273.871 38.934c-29.873-12.752-69.162-19.775-110.629-19.775-41.468 0-80.756 7.023-110.629 19.775-33.927 14.484-52.613 35.262-52.613 58.509s18.686 44.025 52.613 58.509c29.872 12.752 69.161 19.775 110.629 19.775s80.756-7.023 110.629-19.775c33.928-14.483 52.613-35.263 52.613-58.509s-18.685-44.025-52.613-58.509z" fill="#fff4f4"/><path d="m326.436 206.039c-6.091 10.172-20.37 20.455-40.709 28.914-32.483 13.51-75.97 20.963-122.484 20.996v30c50.379-.034 97.958-8.304 134.005-23.296 11.15-4.637 20.907-9.824 29.198-15.462z" fill="#e0d2cd"/><path d="m273.871 38.934c-29.873-12.752-69.162-19.775-110.629-19.775v156.568c41.468 0 80.756-7.023 110.629-19.775 33.928-14.483 52.613-35.263 52.613-58.509s-18.685-44.025-52.613-58.509z" fill="#f6efea"/><path d="m495.881 134.662c-.145-.104-.291-.208-.437-.31l-140.545 198.658c6.581 4.374 14.06 6.483 21.479 6.483 12.104 0 24.045-5.616 31.642-16.168l96.71-134.33c12.539-17.418 8.57-41.792-8.849-54.333z" fill="#00607f"/><path d="m403.285 303.883-38.499-27.718c-19.277-13.88-45.286-12.718-63.25 2.821-32.718 28.3-68.703 48.384-106.958 59.693-2.358.697-4.225 2.506-4.996 4.841s-.348 4.899 1.131 6.864c10.195 13.535 19.816 25.359 29.415 36.149 1.684 1.893 4.212 2.805 6.71 2.433l35.164-5.246-17.478 17.348c-1.444 1.433-2.244 3.391-2.216 5.425.027 2.034.88 3.97 2.362 5.363 17.673 16.612 36.209 30.544 56.667 42.59 2.774 1.632 6.28 1.314 8.715-.793l19.785-17.128-5.435 23.889c-.777 3.419.917 6.919 4.079 8.431 17.477 8.353 36.983 16.092 59.636 23.66.776.26 1.579.387 2.376.387 1.601 0 3.182-.512 4.496-1.496 1.97-1.475 3.091-3.822 3-6.281-1.188-32.128 2.255-59.896 10.526-84.888.949-2.867 1.837-5.57 2.682-8.144 3.569-10.872 6.39-19.459 9.77-28.047 8.7-22.101 1.594-46.275-17.682-60.153z" fill="#ffd321"/><path d="m403.285 303.883-18.405-13.25-105.744 149.466c7.168 5.074 14.55 9.842 22.201 14.347 2.774 1.632 6.28 1.314 8.715-.793l19.785-17.128-5.435 23.889c-.777 3.419.917 6.919 4.079 8.431 17.477 8.353 36.983 16.092 59.636 23.66.776.26 1.579.387 2.376.387 1.601 0 3.182-.512 4.496-1.496 1.97-1.475 3.091-3.822 3-6.281-1.188-32.128 2.255-59.896 10.526-84.888.949-2.867 1.837-5.57 2.682-8.144 3.569-10.872 6.39-19.459 9.77-28.047 8.7-22.101 1.594-46.275-17.682-60.153z" fill="#ff9d21"/></g></svg>