<?xml version="1.0" encoding="utf-8"?>
<!-- Generator: Adobe Illustrator 23.0.2, SVG Export Plug-In . SVG Version: 6.00 Build 0)  -->
<svg version="1.1" id="Layer_1" xmlns="http://www.w3.org/2000/svg" xmlns:xlink="http://www.w3.org/1999/xlink" x="0px" y="0px"
	 viewBox="0 0 512 512" style="enable-background:new 0 0 512 512;" xml:space="preserve">
<style type="text/css">
	.st0{fill:#FFEA01;}
	.st1{fill:#007A9F;}
	.st2{fill:#80C200;}
	.st3{fill:#FF6826;}
	.st4{fill:#FFCF03;}
	.st5{fill:#00607F;}
	.st6{fill:#01B71D;}
	.st7{fill:#FF5317;}
</style>
<g>
	<circle class="st0" cx="392" cy="392" r="120"/>
	<g>
		<path class="st1" d="M240,66v108c0,36.4-29.6,66-66,66H66c-36.4,0-66-29.6-66-66V66C0,29.6,29.6,0,66,0h108
			C210.4,0,240,29.6,240,66z"/>
		<path class="st2" d="M512,66v108c0,36.4-29.6,66-66,66H338c-36.4,0-66-29.6-66-66V66c0-36.4,29.6-66,66-66h108
			C482.4,0,512,29.6,512,66z"/>
		<path class="st3" d="M240,338v108c0,36.4-29.6,66-66,66H66c-36.4,0-66-29.6-66-66V338c0-36.4,29.6-66,66-66h108
			C210.4,272,240,301.6,240,338z"/>
	</g>
	<path class="st4" d="M512,392c0,66.2-53.8,120-120,120c-5.4,0-10.8-0.4-16-1.1c58.6-7.8,104-58.2,104-118.9s-45.4-111.1-104-118.9
		c5.2-0.7,10.6-1.1,16-1.1C458.2,272,512,325.8,512,392z"/>
	<path class="st5" d="M240,66v108c0,36.4-29.6,66-66,66h-32c36.4,0,66-29.6,66-66V66c0-36.4-29.6-66-66-66h32
		C210.4,0,240,29.6,240,66z"/>
	<path class="st6" d="M512,66v108c0,36.4-29.6,66-66,66h-32c36.4,0,66-29.6,66-66V66c0-36.4-29.6-66-66-66h32
		C482.4,0,512,29.6,512,66z"/>
	<path class="st7" d="M240,338v108c0,36.4-29.6,66-66,66h-32c36.4,0,66-29.6,66-66V338c0-36.4-29.6-66-66-66h32
		C210.4,272,240,301.6,240,338z"/>
</g>
</svg>
