<svg height="512pt" viewBox="0 -108 512.00124 512" width="512pt" xmlns="http://www.w3.org/2000/svg"><path d="m205.710938 35.851562c-22.457032-22.8125-52.390626-35.539062-84.289063-35.8398432-.390625-.0117188-.769531-.0117188-1.160156-.0117188-31.480469 0-61.269531 12.25-83.96875 34.582031-23.160157 22.769531-36.050781 53.128907-36.28906275 85.480469-.33203125 45.808594 24.59765575 87.347656 65.07031275 108.40625.640625.332031 1.230469.941406 1.679687 1.703125l29.660156 51.078125c5 8.609375 13.910157 13.75 23.847657 13.75 9.929687 0 18.851562-5.140625 23.851562-13.75l29.769531-51.269531c.378907-.640625.878907-1.148438 1.421876-1.429688 40.230468-20.871093 65.21875-62.089843 65.21875-107.582031 0-32.089844-12.359376-62.316406-34.8125-85.117188zm0 0" fill="#2999ff"/><path d="m240.523438 120.96875c0 45.492188-24.992188 86.710938-65.222657 107.582031-.539062.28125-1.039062.789063-1.417969 1.429688l-29.769531 51.269531c-5 8.609375-13.921875 13.75-23.851562 13.75v-295c.390625 0 .769531 0 1.160156.0117188 31.898437.3007812 61.832031 13.0273432 84.289063 35.8398432 22.453124 22.800782 34.8125 53.027344 34.8125 85.117188zm0 0" fill="#3e7eff"/><path d="m471.171875 0h-170.160156c-22.511719 0-40.832031 18.390625-40.832031 41v152.871094c0 22.609375 18.320312 41 40.832031 41h34.808593l26.480469 45.398437c4.992188 8.589844 13.878907 13.730469 23.789063 13.75h.070312c9.921875 0 18.832032-5.128906 23.832032-13.730469l26.480468-45.417968h34.699219c22.507813 0 40.828125-18.390625 40.828125-41v-152.871094c0-22.609375-18.320312-41-40.828125-41zm0 0" fill="#ffc837"/><path d="m512 41v152.871094c0 22.609375-18.320312 41-40.828125 41h-34.703125l-26.476562 45.417968c-5 8.601563-13.910157 13.730469-23.832032 13.730469h-.070312v-294.019531h85.078125c22.511719 0 40.832031 18.390625 40.832031 41zm0 0" fill="#fbb13e"/><g fill="#fff"><path d="m135.261719 122.339844v48.789062c0 8.28125-6.71875 15-15 15-8.289063 0-15-6.71875-15-15v-48.789062c0-8.277344 6.710937-15 15-15 8.28125 0 15 6.722656 15 15zm0 0"/><path d="m135.261719 70.8125v10.066406c0 8.28125-6.71875 15-15 15-8.289063 0-15-6.71875-15-15v-10.066406c0-8.28125 6.710937-15 15-15 8.28125 0 15 6.71875 15 15zm0 0"/><path d="m403.832031 126.371094c-1.640625.78125-2.742187 2.71875-2.742187 4.820312 0 8.277344-6.707032 15-15 15-8.277344 0-15-6.722656-15-15 0-11.691406 5.75-22.589844 15-29.070312 1.480468-1.050782 3.0625-1.980469 4.710937-2.78125 4.128907-1.988282 6.589844-6.289063 6.269531-10.949219-.367187-5.421875-4.839843-9.949219-10.167968-10.320313-.269532-.019531-.542969-.03125-.8125-.03125-2.769532 0-5.398438 1.03125-7.4375 2.941407-2.300782 2.148437-3.570313 5.070312-3.570313 8.238281 0 8.292969-6.710937 15-15 15-8.28125 0-15-6.707031-15-15 0-11.40625 4.777344-22.40625 13.097657-30.179688 7.582031-7.058593 17.613281-10.976562 27.910156-11 .960937 0 1.929687.03125 2.890625.101563 20.28125 1.410156 36.628906 17.828125 38.019531 38.199219 1.171875 16.972656-7.929688 32.679687-23.167969 40.03125zm0 0"/><path d="m401.089844 171.671875v6.917969c0 8.289062-6.707032 15-15 15-8.277344 0-15-6.710938-15-15v-6.917969c0-8.28125 6.722656-15 15-15 8.292968 0 15 6.71875 15 15zm0 0"/></g><path d="m135.261719 70.8125v10.066406c0 8.28125-6.71875 15-15 15v-40.066406c8.28125 0 15 6.71875 15 15zm0 0" fill="#fff5ea"/><path d="m135.261719 122.339844v48.789062c0 8.28125-6.71875 15-15 15v-78.789062c8.28125 0 15 6.722656 15 15zm0 0" fill="#fff5ea"/><path d="m401.089844 171.671875v6.917969c0 8.289062-6.707032 15-15 15v-36.917969c8.292968 0 15 6.71875 15 15zm0 0" fill="#fff5ea"/><path d="m403.832031 126.371094c-1.640625.78125-2.742187 2.71875-2.742187 4.820312 0 8.277344-6.707032 15-15 15v-44.070312c1.480468-1.050782 3.0625-1.980469 4.710937-2.78125 4.128907-1.988282 6.589844-6.289063 6.269531-10.949219-.367187-5.421875-4.839843-9.949219-10.167968-10.320313-.269532-.019531-.542969-.03125-.8125-.03125v-30c.960937 0 1.929687.03125 2.890625.101563 20.28125 1.410156 36.628906 17.828125 38.019531 38.199219 1.171875 16.972656-7.929688 32.679687-23.167969 40.03125zm0 0" fill="#fff5ea"/></svg>