<svg height="512" viewBox="0 0 64 64" width="512" xmlns="http://www.w3.org/2000/svg"><path d="m12 6v54h4v-52h28v52h4v-54a2 2 0 0 0 -2-2h-32a2 2 0 0 0 -2 2z" fill="#fab400"/><path d="m44 8h10a2 2 0 0 1 2 2v48a2 2 0 0 1 -2 2h-10a0 0 0 0 1 0 0v-52a0 0 0 0 1 0 0z" fill="#c80a50"/><path d="m48 19v6h-4v4h4a4 4 0 0 0 4-4v-6z" fill="#a00028"/><path d="m22 12h4a4 4 0 0 1 4 4v5a1 1 0 0 1 -1 1h-10a1 1 0 0 1 -1-1v-5a4 4 0 0 1 4-4z" fill="#0a5078"/><path d="m22 21h4v3h-4z" fill="#d2aa82"/><path d="m18 24h12a2 2 0 0 1 2 2v12a0 0 0 0 1 0 0h-14a0 0 0 0 1 0 0v-14a0 0 0 0 1 0 0z" fill="#c80a50"/><path d="m20 24h8a0 0 0 0 1 0 0 4 4 0 0 1 -4 4 4 4 0 0 1 -4-4 0 0 0 0 1 0 0z" fill="#d2aa82"/><path d="m25 22h-2a3 3 0 0 1 -3-3v-3a2 2 0 0 1 2-2h1a2 2 0 0 0 2 2h3v3a3 3 0 0 1 -3 3z" fill="#f0c8a0"/><path d="m18 38h12v20h-12z" fill="#0a5078"/><path d="m29 42a2 2 0 0 0 1 1.732v-5.732h-1z" fill="#00325a"/><path d="m24 58.5a.5.5 0 0 1 -.5-.5v-14a.5.5 0 0 1 1 0v14a.5.5 0 0 1 -.5.5z" fill="#00325a"/><path d="m16 40h2a0 0 0 0 1 0 0v4a0 0 0 0 1 0 0 2 2 0 0 1 -2-2v-2a0 0 0 0 1 0 0z" fill="#f0c8a0"/><path d="m32 40a0 0 0 0 1 0 0v4a0 0 0 0 1 0 0h-2a0 0 0 0 1 0 0v-2a2 2 0 0 1 2-2z" fill="#f0c8a0" transform="matrix(-1 0 0 -1 62 84)"/><path d="m18 24a0 0 0 0 1 0 0v16a0 0 0 0 1 0 0h-2a0 0 0 0 1 0 0v-14a2 2 0 0 1 2-2z" fill="#c80a50"/><path d="m30 24h2a0 0 0 0 1 0 0v16a0 0 0 0 1 0 0 2 2 0 0 1 -2-2v-14a0 0 0 0 1 0 0z" fill="#c80a50" transform="matrix(-1 0 0 -1 62 64)"/><path d="m31 24.268a2.016 2.016 0 0 0 -.5-.205 2 2 0 0 0 -1.5 1.937v12h2z" fill="#a00028"/><path d="m20 56h2a2 2 0 0 1 2 2v2a0 0 0 0 1 0 0h-6a0 0 0 0 1 0 0v-2a2 2 0 0 1 2-2z" fill="#c80a50"/><path d="m26 56h2a2 2 0 0 1 2 2v2a0 0 0 0 1 0 0h-6a0 0 0 0 1 0 0v-2a2 2 0 0 1 2-2z" fill="#c80a50"/><path d="m32 24h12v14h-12z" fill="#fab400"/><path d="m48 18v6h-4v4h4a4 4 0 0 0 4-4v-6z" fill="#fab400"/><path d="m50 14a2 2 0 0 1 2 2v2a0 0 0 0 1 0 0h-4a0 0 0 0 1 0 0v-2a2 2 0 0 1 2-2z" fill="#f0c8a0"/><path d="m36 21h4a0 0 0 0 1 0 0v3a2 2 0 0 1 -2 2 2 2 0 0 1 -2-2v-3a0 0 0 0 1 0 0z" fill="#d2aa82"/><path d="m36 14h4a2 2 0 0 1 2 2v3a3 3 0 0 1 -3 3h-2a3 3 0 0 1 -3-3v-3a2 2 0 0 1 2-2z" fill="#f0c8a0"/><path d="m40 14h-4a2 2 0 0 0 -2 2v-2a2 2 0 0 1 2-2h4a2 2 0 0 1 2 2v2a2 2 0 0 0 -2-2z" fill="#c80a50"/><path d="m32 38h12v20h-12z" fill="#0a5078"/><path d="m38 58.5a.5.5 0 0 1 -.5-.5v-14a.5.5 0 0 1 1 0v14a.5.5 0 0 1 -.5.5z" fill="#00325a"/><path d="m30 40h2a0 0 0 0 1 0 0v4a0 0 0 0 1 0 0 2 2 0 0 1 -2-2v-2a0 0 0 0 1 0 0z" fill="#f0c8a0"/><path d="m32 24a0 0 0 0 1 0 0v16a0 0 0 0 1 0 0h-2a0 0 0 0 1 0 0v-14a2 2 0 0 1 2-2z" fill="#fab400"/><path d="m34 56h2a2 2 0 0 1 2 2v2a0 0 0 0 1 0 0h-6a0 0 0 0 1 0 0v-2a2 2 0 0 1 2-2z" fill="#00a0c8"/><path d="m40 56h2a2 2 0 0 1 2 2v2a0 0 0 0 1 0 0h-6a0 0 0 0 1 0 0v-2a2 2 0 0 1 2-2z" fill="#00a0c8"/><circle cx="52" cy="34" fill="#f0f0f0" r="2"/></svg>