<svg id="Layer_1" enable-background="new 0 0 511 511" height="512" viewBox="0 0 511 511" width="512" xmlns="http://www.w3.org/2000/svg"><g><g><g><g><path d="m255.5 1c-98.131 0-158.58 55.352-158.747 55.445 0 0-2.513 3.137-2.983 5.222-3.818 16.948-7.385 39.663-7.385 56.238 0 140.833 118.763 254.972 259.596 254.972 54.231 0 114.568-25.992 154.949-57.243.903-.699 3.769-5.396 3.769-5.396.178-1.087 5.8-23.477 5.8-54.239.001-140.832-114.166-254.999-254.999-254.999z" fill="#fee903"/></g></g><g><path d="m345.959 365.679c-140.833 0-255-114.167-255-255 0-18.615 2.007-36.753 5.795-54.234-58.645 46.72-96.254 118.747-96.254 199.555 0 61.464 21.746 117.849 57.964 161.881l394.057.023c25.186-30.601 43.424-67.257 52.178-107.665-43.559 34.695-98.724 55.44-158.74 55.44z" fill="#fed402"/></g></g><g><g><g><path d="m369.165 304.066h-64.998v-11.676h64.998c6.09 0 11.044-4.954 11.044-11.044v-30.095h11.676v30.095c0 12.528-10.193 22.72-22.72 22.72z" fill="#00cdff"/></g></g><g><g><path d="m334.609 12.637h-111.56v13.049c0 6.372 5.165 11.537 11.537 11.537h91.854c13.13 0 18.689-16.727 8.169-24.586z" fill="#4f555a"/></g></g><g><g><path d="m229.034 13.212.67-.575h-56.26l-.67.575c-9.617 8.25-3.783 24.011 8.888 24.011h56.26c-12.671 0-18.505-15.762-8.888-24.011z" fill="#373c41"/></g></g><g><g><g><path d="m391.13 201.588h-14.86v-113.062c0-40.62-33.047-73.667-73.666-73.667h-97.108c-40.619 0-73.666 33.047-73.666 73.667v113.062h-14.859v-113.062c0-48.813 39.711-88.526 88.525-88.526h97.108c48.813 0 88.525 39.713 88.525 88.526v113.062z" fill="#2696ff"/></g></g></g><g><g><g><path d="m131.83 201.588h-14.859v-113.062c0-48.813 39.711-88.526 88.525-88.526v14.859c-40.619 0-73.666 33.047-73.666 73.667z" fill="#2577f8"/></g></g></g><g><path d="m405.764 388.279-150.579-33.321-113.08 72.446 31.345 70.105c25.75 8.746 53.35 13.49 82.057 13.49 78.882 0 150.039-36.015 197.021-93.097-11.339-14.63-27.638-25.39-46.764-29.623z" fill="#bbec6c"/></g><g><path d="m338.194 414.297c-1.223-43.55-36.529-79.083-80.07-80.566l-76.016 37.448-76.907 17.07c-19.114 4.242-35.4 15.004-46.729 29.633 29.852 36.293 69.536 64.193 114.979 79.629l.026-.384c1.079-15.742 19.165-23.71 31.754-14.198 2.553 1.929 5.221 3.715 7.992 5.344l42.485-42.485 42.131 42.131c24.826-14.886 41.233-42.371 40.355-73.622z" fill="#97da7b"/></g><g><g><path d="m255.223 316.954c-45.842 0-83.005 37.162-83.005 83.005 0 30.513 16.475 57.163 41.004 71.586l42.485-42.485 42.131 42.131c24.192-14.504 40.389-40.973 40.389-71.232.001-45.843-37.162-83.005-83.004-83.005z" fill="#fff"/></g></g><g><g><g><g><g><path d="m255.762 427.405c-21.168 0-38.327-17.16-38.327-38.327v-85.848h76.655v85.847c-.001 21.168-17.161 38.328-38.328 38.328z" fill="#f6a96c"/></g></g></g></g><g><g><g><g><path d="m359.735 168.756c0-34.977-22.438-66.961-57.416-66.961h-93.116c-9.981 0-19.121 2.612-27.096 7.147v184.873c0 40.351 32.455 73.373 72.805 73.679.283.002.566.003.849.003 60.096 0 108.813-48.717 108.813-108.813v-34.352z" fill="#ffbd86"/></g></g></g></g><g><g><g><g><path d="m364.575 244.114v-64.677c14.09 0 25.513 11.422 25.513 25.513v13.652c-.001 14.09-11.423 25.512-25.513 25.512z" fill="#f6a96c"/></g></g></g></g><g><g><g><g><path d="m120.359 218.602c0 14.09 11.422 25.513 25.513 25.513v-64.677c-14.09 0-25.513 11.422-25.513 25.513z" fill="#f6a96c"/></g></g></g></g><g><g><g><g><path d="m208.747 218.022v7.673c0 5.005 4.058 9.063 9.063 9.063s9.063-4.058 9.063-9.063v-7.673z" fill="#f6a96c"/></g></g></g></g><g><g><g><g><path d="m282.591 218.022v7.673c0 5.005 4.058 9.063 9.063 9.063s9.063-4.058 9.063-9.063v-7.673z" fill="#f6a96c"/></g></g></g></g><g><g><g><path d="m261.66 367.338c-45.747-13.286-79.188-55.503-79.188-105.537.272-6.182 0-66.093 0-88.851 0-34.977 28.355-63.332 63.332-63.332h79.039c-6.953-2.7-14.533-4.194-22.523-4.194h-93.116c-34.977 0-60.934 25.957-60.934 60.934l-2.398 57.973v33.276c0 62.805 52.623 113.077 115.788 109.731z" fill="#f6a96c"/></g></g></g><g><g><g><g><path d="m217.81 227.499c-5.005 0-9.063-4.058-9.063-9.063v-11.658l3.341-5.059-3.341-5.059v-3.011c0-5.005 4.058-9.063 9.063-9.063s9.063 4.058 9.063 9.063v24.786c0 5.006-4.058 9.064-9.063 9.064z" fill="#373c41"/></g></g></g></g><g><g><g><g><path d="m291.654 227.499c-5.005 0-9.063-4.058-9.063-9.063v-11.658l3.341-5.059-3.341-5.059v-3.011c0-5.005 4.058-9.063 9.063-9.063s9.063 4.058 9.063 9.063v24.786c-.001 5.006-4.058 9.064-9.063 9.064z" fill="#373c41"/></g></g></g></g><g><g><path d="m289.132 277.637h-9.332l-24.577 5.102-24.577-5.102h-8.255c-2.769 0-4.982 2.417-4.613 5.162.707 5.251 2.477 10.164 5.086 14.517l49.764 14.747c11.239-5.517 19.381-16.375 21.116-29.264.37-2.745-1.843-5.162-4.612-5.162z" fill="#de0c1e"/></g></g><g><g><g><g><path d="m241.077 240.364c-2.253 8.997 1.842 18.797 9.671 21.75 1.576.594 3.261.916 5.013.916s3.437-.322 5.013-.916c7.83-2.954 11.924-12.754 9.672-21.75l-7.469-29.825c-1.88-7.509-12.551-7.509-14.431 0z" fill="#f6a96c"/></g></g></g></g><g><g><g><path d="m145.872 108.385v60.945.003 54.998c8.049 0 14.575-6.525 14.575-14.575v-64.355c0-14.215 7.999-27.317 20.782-33.534.313-.152.626-.301.939-.446v-3.035h-36.296z" fill="#6d3222"/></g></g><g><g><path d="m356.49 125.058c-5.322 0-9.19 5.053-7.797 10.19.855 3.154 1.307 6.446 1.307 9.802v64.707c0 8.049 6.525 14.575 14.575 14.575v-91.189c0-4.466-3.62-8.085-8.085-8.085z" fill="#6d3222"/></g></g></g><g><g><path d="m212.088 210.119c-1.845 0-3.341-1.496-3.341-3.341v-10.118c0-1.845 1.496-3.341 3.341-3.341 1.845 0 3.341 1.496 3.341 3.341v10.118c0 1.846-1.496 3.341-3.341 3.341z" fill="#fff"/></g></g><g><g><path d="m285.932 210.119c-1.845 0-3.341-1.496-3.341-3.341v-10.118c0-1.845 1.496-3.341 3.341-3.341 1.845 0 3.341 1.496 3.341 3.341v10.118c0 1.846-1.496 3.341-3.341 3.341z" fill="#fff"/></g></g></g><g><g><path d="m222.869 297.313c6.697 11.171 18.92 18.651 32.892 18.651 6.053 0 11.775-1.408 16.865-3.907-2.188-13.725-14.075-24.216-28.417-24.216-8.464 0-16.073 3.655-21.34 9.472z" fill="#ff3939"/></g></g><g><g><path d="m274.393 287.841h-38.34c-2.986 0-5.407-2.421-5.407-5.407v-4.798h49.154v4.798c0 2.987-2.421 5.407-5.407 5.407z" fill="#fff"/></g></g><g><g><path d="m292.077 36.976h-68.686l-3.739.038c-21.184.214-38.245 17.448-38.245 38.634v35.581h183.168v-1.754c0-40.04-32.459-72.499-72.498-72.499z" fill="#883f2e"/></g></g><g><g><path d="m223.391 36.976h-5.021c-40.04 0-72.498 32.458-72.498 72.498l36.296-1.089-.204-29.982c0-22.879 18.547-41.427 41.427-41.427z" fill="#6d3222"/></g></g><g><g><path d="m145.872 230.77v-68.84h-25.833c-9.45 0-17.11 7.661-17.11 17.11v36.903c0 8.189 6.638 14.827 14.827 14.827z" fill="#2696ff"/></g></g><g><g><path d="m102.928 213.014v32.907c0 9.45 7.661 17.11 17.11 17.11h25.834v-32.907h-25.834c-9.449 0-17.11-7.661-17.11-17.11z" fill="#2577f8"/></g></g><g><g><g><path d="m131.646 272.661h7.578c3.672 0 6.648-2.976 6.648-6.648v-108.475c0-3.672-2.976-6.648-6.648-6.648h-7.578c-3.672 0-6.648 2.976-6.648 6.648v108.475c0 3.672 2.977 6.648 6.648 6.648z" fill="#fe0364"/></g></g></g><g><g><path d="m407.518 216.516v-37.476c0-9.45-7.661-17.11-17.11-17.11h-25.833v68.84h28.69c7.872 0 14.253-6.382 14.253-14.254z" fill="#2696ff"/></g></g><g><g><path d="m390.408 230.124h-25.833v32.907h25.833c9.45 0 17.11-7.661 17.11-17.11v-32.907c0 9.449-7.66 17.11-17.11 17.11z" fill="#2577f8"/></g></g><g><g><g><path d="m378.8 272.661h-7.578c-3.672 0-6.648-2.976-6.648-6.648v-108.475c0-3.672 2.976-6.648 6.648-6.648h7.578c3.672 0 6.648 2.976 6.648 6.648v108.475c0 3.672-2.976 6.648-6.648 6.648z" fill="#fe0364"/></g></g></g><g><g><path d="m314.336 292.391h50.238v11.676h-50.238z" fill="#00cdff"/></g></g><g><g><g><path d="m338.227 310.966h-29.019c-7.034 0-12.737-5.703-12.737-12.737s5.703-12.737 12.737-12.737h29.019c7.034 0 12.737 5.703 12.737 12.737s-5.702 12.737-12.737 12.737z" fill="#fe0364"/></g></g></g><g><g><path d="m364.575 144.657h-148.47c-18.856 0-34.141-15.286-34.141-34.141v-32.112h151.628c17.112 0 30.983 13.872 30.983 30.983z" fill="#883f2e"/></g></g><g><g><path d="m237.085 180.342c-10.628-10.626-27.92-10.628-38.55 0l-8.484-8.484c15.307-15.31 40.212-15.309 55.519 0z" fill="#6d3222"/></g></g><g><g><path d="m310.929 180.342c-10.629-10.627-27.922-10.627-38.551 0l-8.484-8.484c15.307-15.309 40.213-15.309 55.52 0z" fill="#6d3222"/></g></g></g></g></svg>