<?xml version="1.0" encoding="utf-8"?>
<!-- Generator: Adobe Illustrator 23.0.2, SVG Export Plug-In . SVG Version: 6.00 Build 0)  -->
<svg version="1.1" id="Flat" xmlns="http://www.w3.org/2000/svg" xmlns:xlink="http://www.w3.org/1999/xlink" x="0px" y="0px"
	 viewBox="0 0 512 512" style="enable-background:new 0 0 512 512;" xml:space="preserve">
<style type="text/css">
	.st0{fill:#FCBB47;}
	.st1{fill:#E6AD3E;}
	.st2{fill:#0098FF;}
	.st3{fill:#FCFEFF;}
	.st4{fill:#80DAFF;}
</style>
<g>
	<path class="st0" d="M407.3,488H368l-16-16l0.2-432l126,22.3c5.4,1,9,6.1,8.1,11.5l-69.2,405.9C416.4,484.5,412.2,488,407.3,488z"
		/>
	<path class="st1" d="M352.2,40L352,472l16,16h16V45.6L352.2,40z"/>
	<g>
		<path class="st2" d="M34,24h324c5.5,0,10,4.5,10,10v444c0,5.5-4.5,10-10,10H34c-5.5,0-10-4.5-10-10V34C24,28.5,28.5,24,34,24z"/>
		<path class="st3" d="M84,256h40c11,0,20,9,20,20v40c0,11-9,20-20,20H84c-11,0-20-9-20-20v-40C64,265,73,256,84,256z"/>
		<path class="st3" d="M84,376h40c11,0,20,9,20,20v40c0,11-9,20-20,20H84c-11,0-20-9-20-20v-40C64,385,73,376,84,376z"/>
		<g>
			<path class="st4" d="M112,320c-2.1,0-4.2-0.8-5.7-2.3l-24-24l11.3-11.3l17.9,17.9l42.4-49.4l12.1,10.4l-48,56
				c-1.5,1.7-3.5,2.7-5.8,2.8C112.2,320,112.1,320,112,320z"/>
			<path class="st4" d="M112,440c-2.1,0-4.2-0.8-5.7-2.3l-24-24l11.3-11.3l17.9,17.9l42.4-49.4l12.1,10.4l-48,56
				c-1.5,1.7-3.5,2.7-5.8,2.8C112.2,440,112.1,440,112,440z"/>
			<g>
				<path class="st3" d="M184,368h120v16H184V368z"/>
				<path class="st3" d="M184,408h40v16h-40V408z"/>
			</g>
		</g>
		<g>
			<path class="st3" d="M240,408h64v16h-64V408z"/>
			<path class="st3" d="M184,248h120v16H184V248z"/>
			<path class="st3" d="M184,288h40v16h-40V288z"/>
			<path class="st3" d="M240,288h64v16h-64V288z"/>
			<path class="st3" d="M199.9,56L128,88.1l6,38.1c5.7,31,23.1,58.6,48.5,77.1l17.4,12.8l16.6-12.1c25.8-18.5,43.4-46.3,49.2-77.6
				l6.1-38.4L199.9,56z M197.5,157.7c-3.1,3.1-8.2,3.1-11.3,0l-24-24l11.3-11.3l18.3,18.3l42.3-42.3l11.3,11.3L197.5,157.7z"/>
			<path class="st3" d="M56,48h48v16H56V48z"/>
			<path class="st3" d="M56,80h32v16H56V80z"/>
			<path class="st3" d="M296,48h16v16h-16V48z"/>
			<path class="st3" d="M328,48h16v16h-16V48z"/>
		</g>
	</g>
</g>
</svg>
