<svg id="Capa_1" enable-background="new 0 0 510 510" height="512" viewBox="0 0 510 510" width="512" xmlns="http://www.w3.org/2000/svg"><g><path d="m90 140.907c-10.944 9.303-79.032 67.177-90 76.5v73.754l30 38.182 60 10.909 15-99.673z" fill="#fd8f01"/><path d="m420 340.252 60-10.909 30-38.182c0-8.303 0-65.005 0-73.754-10.944-9.303-79.032-67.177-90-76.5l-15 99.673z" fill="#ff6d11"/><path d="m168.31 74.343 43.345 15 43.345-15 15-36.843-15-36.843c-23.272 19.78-72.584 61.696-86.69 73.686z" fill="#fd8f01"/><path d="m255 .657v73.687l43.345 15 43.345-15c-23.271-19.781-72.584-61.697-86.69-73.687z" fill="#ff6d11"/><path d="m90 74.343v265.909l90 79.091 75-75 15-135-15-135c-4.655 0-160.348 0-165 0z" fill="#e4f0fd"/><path d="m420 340.252c0-7.502 0-258.412 0-265.909-4.655 0-160.348 0-165 0v270l72.04 75z" fill="#cadbfd"/><path d="m150 134.343v60l52.5 16.313 52.5-16.313 15-30-15-30c-28.278 0-88.527 0-105 0z" fill="#75e2f8"/><path d="m360 134.343c-28.278 0-88.527 0-105 0v60l52.5 16.313 52.5-16.313c0-7.259 0-52.693 0-60z" fill="#00c0f1"/><path d="m150 254.343v30h105l15-15-15-15c-28.278 0-88.527 0-105 0z" fill="#75e2f8"/><path d="m360 254.343c-28.278 0-88.527 0-105 0v30h105c0-10.492 0-19.508 0-30z" fill="#00c0f1"/><path d="m150 194.343v30h105l15-15-15-15c-28.278 0-88.527 0-105 0z" fill="#00c0f1"/><path d="m360 194.343c-28.278 0-88.527 0-105 0v30h105c0-10.492 0-19.508 0-30z" fill="#009ae4"/><path d="m510 509.343c0-12.118 0-206.064 0-218.182-10.166 5.545-172.794 94.251-182.96 99.796l77.96 73.386z" fill="#fd8f01"/><path d="m0 291.161v218.182l105-45 77.959-73.386c-10.166-5.544-172.793-94.25-182.959-99.796z" fill="#fbbd00"/><path d="m0 509.343h255l15-73.687-15-91.313c-.104.067-254.891 164.929-255 165z" fill="#fdd82e"/><path d="m255 344.343v165h255c-.11-.071-254.897-164.933-255-165z" fill="#fbbd00"/></g></svg>