<svg id="Capa_1" enable-background="new 0 0 494.28 494.28" height="512" viewBox="0 0 494.28 494.28" width="512" xmlns="http://www.w3.org/2000/svg"><g><path d="m470.419 245.146c0 127.34-103.23 230.58-230.57 230.58-4.65 0-9.26-.14-13.84-.41-120.91-7.16-216.74-107.48-216.74-230.17 0-122.7 95.83-223.02 216.74-230.17 4.58-.27 9.19-.41 13.84-.41 127.34 0 230.57 103.23 230.57 230.58z" fill="#ddeafb"/><path d="m470.419 245.146c0 127.34-103.23 230.58-230.57 230.58-4.65 0-9.26-.14-13.84-.41 120.9-7.16 216.73-107.48 216.73-230.17 0-122.7-95.83-223.02-216.73-230.17 4.58-.27 9.19-.41 13.84-.41 127.34 0 230.57 103.23 230.57 230.58z" fill="#cbe2ff"/><path d="m404.319 245.146c0 90.83-73.64 164.47-164.47 164.47-4.66 0-9.28-.19-13.84-.58-84.36-7.02-150.64-77.72-150.64-163.89 0-86.18 66.28-156.88 150.64-163.9 4.56-.39 9.18-.58 13.84-.58 90.83 0 164.47 73.64 164.47 164.48z" fill="#fe646f"/><path d="m404.319 245.146c0 90.83-73.64 164.47-164.47 164.47-4.66 0-9.28-.19-13.84-.58 84.35-7.02 150.63-77.72 150.63-163.89 0-86.18-66.28-156.88-150.63-163.9 4.56-.39 9.18-.58 13.84-.58 90.83 0 164.47 73.64 164.47 164.48z" fill="#fd4755"/><path d="m334.559 245.146c0 52.31-42.4 94.72-94.71 94.72-4.7 0-9.32-.34-13.84-1.01-45.76-6.69-80.88-46.1-80.88-93.71s35.12-87.02 80.88-93.71c4.52-.67 9.14-1.01 13.84-1.01 52.31 0 94.71 42.41 94.71 94.72z" fill="#ddeafb"/><path d="m334.559 245.146c0 52.31-42.4 94.72-94.71 94.72-4.7 0-9.32-.34-13.84-1.01 45.75-6.69 80.87-46.1 80.87-93.71s-35.12-87.02-80.87-93.71c4.52-.67 9.14-1.01 13.84-1.01 52.31 0 94.71 42.41 94.71 94.72z" fill="#cbe2ff"/><path d="m271.129 245.146c0 17.27-14.01 31.28-31.28 31.28-4.54 0-8.86-.97-12.75-2.71-10.93-4.88-18.54-15.84-18.54-28.57 0-12.74 7.61-23.69 18.54-28.57 3.89-1.74 8.21-2.71 12.75-2.71 17.27 0 31.28 14 31.28 31.28z" fill="#fe646f"/><path d="m188.145 218.655 11.851-11.851c5.385-5.385 14.132-5.385 19.524.008 5.331 5.331 5.308 14.209 0 19.517l-11.851 11.851-10.501-5.262z" fill="#ffcebf"/><path d="m271.129 245.146c0 17.27-14.01 31.28-31.28 31.28-4.54 0-8.86-.97-12.75-2.71 10.92-4.88 18.53-15.84 18.53-28.57 0-12.74-7.61-23.69-18.53-28.57 3.89-1.74 8.21-2.71 12.75-2.71 17.27 0 31.28 14 31.28 31.28z" fill="#fd4755"/><path d="m45.2 316.898v16.759c0 7.616-6.185 13.8-13.811 13.8-2.51 0-4.871-.673-6.9-1.848-4.134-2.382-6.9-6.847-6.9-11.953v-16.759l13.806-2.76z" fill="#ffcebf"/><path d="m131.114 468.059-42.952 7.667-42.96-7.667v-151.157l42.96-8.06 42.952 8.06z" fill="#5a5a5a"/><path d="m131.112 316.9v151.16l-11.385 4.578-11.385-4.578v-151.16l11.382-2.762z" fill="#444"/><path d="m88.158 316.9v151.16l-10.391 5.811-10.395-5.811v-151.16l10.393-2.762z" fill="#444"/><path d="m88.158 468.059v26.221h44.865c6.748 0 12.219-4.769 12.219-10.652 0-3.036-1.486-5.928-4.085-7.949l-10.042-7.62z" fill="#ddeafb"/><path d="m145.242 483.63c0 5.88-5.47 10.65-12.22 10.65h-22.77c6.75 0 12.22-4.77 12.22-10.65 0-1.52-.37-3-1.07-4.36-.7-1.35-1.72-2.58-3.02-3.59l-10.04-7.62h22.77l10.04 7.62c1.3 1.01 2.32 2.24 3.02 3.59.7 1.36 1.07 2.84 1.07 4.36z" fill="#cbe2ff"/><path d="m88.158 468.059v26.221h-44.864c-6.748 0-12.219-4.769-12.219-10.652 0-3.036 1.486-5.928 4.085-7.949l10.042-7.62z" fill="#ddeafb"/><path d="m67.372 468.06h20.79v26.22h-20.79z" fill="#cbe2ff"/><path d="m208.461 238.966c1.503 1.503 1.503 3.941-.001 5.444l-15.696 15.687c-8.691 8.702-21.066 11.454-32.086 8.267-5.124-1.471-9.951-4.224-13.984-8.257l-15.582-15.593v72.386h-113.523v-89.852c0-15.259 12.37-27.629 27.629-27.629h13.137l29.794 4.718 29.804-4.718h9.878c2.101 0 4.115.835 5.6 2.32l27.85 27.86c4.266 4.266 11.073 4.404 15.498.402.138-.127.286-.265.423-.402l10.946-10.946z" fill="#ffd15b"/><g fill="#ffc344"><path d="m119.544 244.516h11.565v72.38h-22.77v-61.175c0-6.188 5.017-11.205 11.205-11.205z"/><path d="m138.509 229.596-30.17-28.5 9.61-1.68h9.879c2.1 0 4.115.835 5.6 2.32l27.851 27.86c4.27 4.27 11.07 4.41 15.5.4-18.04 17.6-33.9 3.97-38.27-.4z"/><path d="m208.457 238.964c1.504 1.503 1.503 3.941 0 5.444l-15.697 15.689c-8.69 8.7-21.06 11.45-32.08 8.27-4.57-1.31-8.92-3.66-12.67-7.02 6.34 5.69 16.16 5.17 21.88-1.14.04-.03.07-.07.1-.11l27.18-27.18c1.016-1.016 1.521-2.435 1.374-3.864z"/></g><path d="m117.943 148.289v21.341c0 16.45-13.328 29.799-29.789 29.799h-.011c-2.922 0-5.769-.423-8.437-1.228-.445-.127-.879-.265-1.313-.413-.138-.053-.286-.095-.423-.148-11.443-4.16-19.616-15.127-19.616-28.01v-21.341l29.804-4.513z" fill="#ffcebf"/><path d="m117.939 148.286v21.34c0 16.45-13.32 29.8-29.78 29.8h-.02c-2.92 0-5.76-.42-8.43-1.22 12.34-3.64 21.35-15.06 21.35-28.58l.91-23.757z" fill="#ffb09e"/><path d="m117.953 199.419-25.083 32.497c-2.385 3.09-7.047 3.089-9.431 0l-3.732-4.836-21.352-27.661z" fill="#cbe2ff"/><path d="m117.949 199.416-25.074 32.498c-2.384 3.09-7.047 3.091-9.432 0l-3.734-4.838 21.35-27.66z" fill="#baafb9"/><path d="m131.112 130.262c0 8.79-6.071 14.163-13.169 18.028h-59.588v-16.747c0-8.447 6.849-15.296 15.297-15.296 7.253 0 14.725.463 21.881-.91l8.596-1.651 5.611-1.08c11.082-2.129 21.372 6.361 21.372 17.656z" fill="#5a5a5a"/><path d="m131.109 130.266c0 8.792-6.072 14.155-13.17 18.02h-15.97c7.099-3.854 13.17-9.225 13.17-18.02 0-7.57-4.63-13.89-11.01-16.58l5.61-1.08c11.08-2.13 21.37 6.36 21.37 17.66z" fill="#444"/><g><path d="m239.845 253.276c-1.914 0-3.827-.728-5.291-2.185-2.936-2.922-2.947-7.67-.024-10.606l186.09-186.726c2.921-2.936 7.67-2.947 10.606-.024 2.936 2.922 2.947 7.67.024 10.606l-186.09 186.726c-1.465 1.472-3.39 2.209-5.315 2.209z" fill="#fff9df"/></g><g><path d="m431.249 64.346-12.8 12.8c2.92-2.94 2.91-7.69-.03-10.61-2.81-2.8-7.29-2.91-10.23-.31l12.43-12.47c2.92-2.93 7.67-2.94 10.61-.02 2.93 2.92 2.94 7.67.02 10.61z" fill="#fff0ad"/></g><path d="m420.62 53.759-57.028 57.223-3.832-32.862-2.777-24.121c-.09-.783.182-1.565.74-2.122l51.118-51.118c1.505-1.505 4.081-.647 4.383 1.459l2.817 19.621z" fill="#fff0ad"/><path d="m420.62 53.759-57.028 57.224-3.832-32.863 56.28-56.28z" fill="#ffd15b"/><path d="m484.252 76.121-51.103 51.103c-.566.566-1.362.838-2.156.735l-55.964-7.202 56.223-56.416 25.31 3.63 26.231 3.766c2.105.303 2.963 2.88 1.459 4.384z" fill="#fff0ad"/><path d="m484.252 76.121-51.103 51.103c-.566.566-1.362.838-2.156.735l-55.964-7.202 33.847-9.091c3.574-.96 6.833-2.843 9.45-5.46l36.133-36.133c.671-.671.652-1.764-.042-2.411l28.376 4.074c2.105.304 2.963 2.881 1.459 4.385z" fill="#ffd15b"/></g></svg>