<?xml version="1.0" encoding="utf-8"?>
<!-- Generator: Adobe Illustrator 23.0.2, SVG Export Plug-In . SVG Version: 6.00 Build 0)  -->
<svg version="1.1" id="Capa_1" xmlns="http://www.w3.org/2000/svg" xmlns:xlink="http://www.w3.org/1999/xlink" x="0px" y="0px"
	 viewBox="0 0 512 512" style="enable-background:new 0 0 512 512;" xml:space="preserve">
<style type="text/css">
	.st0{fill:#A051FC;}
	.st1{fill:#9336FF;}
	.st2{fill:#8383FF;}
	.st3{fill:#624CFC;}
</style>
<g>
	<g>
		<path class="st0" d="M105.3,105.3c-2.9,2.9-6.8,4.4-10.6,4.4c-3.8,0-7.7-1.5-10.6-4.4L51.6,72.8c-5.9-5.9-5.9-15.3,0-21.2l31,19.6
			L105.3,105.3z"/>
	</g>
	<g>
		<path class="st0" d="M59.5,170.9c-1.3,0-2.6-0.2-3.9-0.5l-44.5-11.8c-8-2.1-12.8-10.3-10.6-18.4s10.3-12.8,18.4-10.6l44.5,11.8
			c8,2.1,12.8,10.3,10.6,18.4C72.2,166.4,66.2,170.9,59.5,170.9z"/>
	</g>
	<g>
		<path class="st1" d="M155.8,74.5c-6.6,0-12.7-4.4-14.5-11.1l-11.8-44.5c-2.1-8,2.6-16.2,10.6-18.4c8-2.1,16.2,2.6,18.4,10.6
			l11.8,44.5c2.1,8-2.6,16.2-10.6,18.4C158.4,74.4,157.1,74.5,155.8,74.5z"/>
	</g>
	<g>
		<g>
			<path class="st1" d="M478.5,478.5c-16,16-41.6,17.6-59.4,3.7l-37.2-29.1l-31.5,52.1c-6.1,10.8-23.4,8.2-26.1-3.9l-54.4-214.2
				c-1.2-4.9,0.2-10.1,3.7-13.6l0,0L393,348.2L478.5,478.5z"/>
		</g>
		<path class="st0" d="M505.2,350.3l-52.1,31.5l29.1,37.2c13.9,17.9,12.4,43.4-3.7,59.4l-205-205c3.6-3.6,8.7-5,13.6-3.7l214.2,54.4
			C513.4,326.8,516,344.3,505.2,350.3L505.2,350.3z"/>
	</g>
	<path class="st1" d="M105.3,105.3L51.6,51.6c5.9-5.9,15.3-5.9,21.2,0l32.6,32.6C111.2,90,111.2,99.5,105.3,105.3z"/>
	<path class="st2" d="M208,208l-41.4,41.4c-2.9,2.9-6.8,4.4-10.6,4.4s-7.7-1.5-10.6-4.4c-5.8-5.9-5.8-15.3,0-21.2l41.4-41.4H208V208
		z"/>
	<g>
		<g>
			<path class="st2" d="M144.3,331.8c-21.7,0-42.1-8.5-57.5-23.8C71.5,292.7,63,272.3,63,250.5c0-21.7,8.5-42.1,23.8-57.5l29.7-29.7
				c5.9-5.9,15.4-5.9,21.2,0s5.9,15.4,0,21.2L108,214.3c-9.7,9.7-15,22.6-15,36.3c0,13.7,5.3,26.6,15,36.3c20,20,52.5,20,72.5,0
				l29.7-29.7c5.9-5.9,15.4-5.9,21.2,0c5.9,5.9,5.9,15.4,0,21.2L201.8,308C186.4,323.4,166,331.8,144.3,331.8L144.3,331.8z"/>
		</g>
		<path class="st3" d="M331.8,144.3c0,21.7-8.5,42.1-23.8,57.5l-29.7,29.7c-2.9,2.9-6.8,4.4-10.6,4.4c-3.8,0-7.7-1.5-10.6-4.4
			c-5.9-5.8-5.9-15.3,0-21.2l29.7-29.7c9.7-9.7,15-22.5,15-36.3c0-13.7-5.3-26.6-15-36.3c-20-20-52.5-20-72.5,0l-29.7,29.7
			c-5.8,5.9-15.3,5.9-21.2,0s-5.9-15.4,0-21.2l29.7-29.7c31.7-31.7,83.3-31.7,114.9,0C323.4,102.2,331.8,122.6,331.8,144.3
			L331.8,144.3z"/>
	</g>
	<path class="st3" d="M249.4,166.6L208,208l-21.2-21.2l41.4-41.4c5.9-5.9,15.4-5.9,21.2,0C255.3,151.3,255.3,160.8,249.4,166.6
		L249.4,166.6z"/>
</g>
</svg>
