<svg id="Layer_1" enable-background="new 0 0 512 512" height="512" viewBox="0 0 512 512" width="512" xmlns="http://www.w3.org/2000/svg"><g><path d="m368.467 399.534c-3.978 0-7.793-1.581-10.606-4.394l-43.807-43.807h-122.32c-25.488 0-47.133-20.555-47.133-47.133v-257.067c-.001-26.58 21.645-47.133 47.132-47.133h273.133c25.489 0 47.134 20.555 47.134 47.133v257.067c0 26.58-21.646 47.133-47.133 47.133h-41.987l-43.807 43.807c-2.813 2.813-6.628 4.394-10.606 4.394z" fill="#34c4ff"/><path d="m464.867 0h-136.567v365.58l29.56 29.56c2.813 2.813 6.628 4.394 10.606 4.394 3.979 0 7.793-1.581 10.606-4.394l43.807-43.807h41.987c25.487 0 47.133-20.553 47.133-47.133v-257.067c.001-26.579-21.644-47.133-47.132-47.133z" fill="#0097ff"/><path d="m279.641 287.067h-55.774c-8.284 0-15-6.716-15-15v-112.467c0-8.284 6.716-15 15-15h55.774c8.284 0 15 6.716 15 15v112.467c0 8.284-6.716 15-15 15z" fill="#0b3a53"/><path d="m400.6 128.533h-17.133v-17.133c0-25.989-21.144-47.133-47.133-47.133-5.269 0-10.151 2.765-12.862 7.283l-43.831 73.05v142.467h120.959c25.989 0 47.133-21.144 47.133-47.134v-64.267c0-25.989-21.144-47.133-47.133-47.133z" fill="#f8f8fa"/><path d="m400.6 128.533h-17.133v-17.133c0-25.989-21.144-47.133-47.133-47.133-2.894 0-5.669.838-8.033 2.339v220.462h72.3c25.989 0 47.133-21.144 47.133-47.134v-64.267c-.001-25.99-21.145-47.134-47.134-47.134z" fill="#eeeef3"/><path d="m191.733 512c-3.978 0-7.793-1.581-10.606-4.394l-43.807-43.806h-90.187c-25.488 0-47.133-20.555-47.133-47.133v-160.667c0-26.58 21.646-47.133 47.133-47.133h289.2c25.488 0 47.133 20.555 47.133 47.133v160.667c0 26.58-21.646 47.133-47.133 47.133h-90.187l-43.807 43.807c-2.812 2.812-6.627 4.393-10.606 4.393z" fill="#ff6791"/><path d="m336.333 208.867h-144.6v303.133c3.979 0 7.793-1.581 10.606-4.394l43.807-43.807h90.187c25.487 0 47.133-20.553 47.133-47.133v-160.666c.001-26.579-21.644-47.133-47.133-47.133z" fill="#ff3378"/><path d="m228.285 273.134c-22.254 0-34.578 14.107-36.552 16.075-1.973-1.968-14.298-16.075-36.552-16.075-43.829 0-65.963 53.323-34.947 84.402l60.893 60.891c2.929 2.929 6.768 4.393 10.606 4.393s7.678-1.464 10.606-4.393l60.893-60.891c31.016-31.079 8.882-84.402-34.947-84.402z" fill="#f8f8fa"/><path d="m191.733 422.819c3.839 0 7.678-1.464 10.606-4.393l60.893-60.891c31.016-31.079 8.882-84.402-34.947-84.402-22.254 0-34.578 14.107-36.552 16.075z" fill="#eeeef3"/></g></svg>