<?xml version="1.0" encoding="utf-8"?>
<!-- Generator: Adobe Illustrator 23.0.2, SVG Export Plug-In . SVG Version: 6.00 Build 0)  -->
<svg version="1.1" id="Layer_1" xmlns="http://www.w3.org/2000/svg" xmlns:xlink="http://www.w3.org/1999/xlink" x="0px" y="0px"
	 viewBox="0 0 1675 260" style="enable-background:new 0 0 1675 260;" xml:space="preserve">
<style type="text/css">
	.st0{fill:#1C1D1E;}
	.st1{fill:#FBCD20;}
</style>
<g>
	<path class="st0" d="M55.58,236.55V82.34H0V68.71c0-5.45,1.91-10.08,5.72-13.9s8.45-5.72,13.9-5.72h129.69v33.24H94.27v154.21
		H55.58z"/>
	<path class="st0" d="M261.34,132.47c-5.45-7.63-12.9-11.44-22.34-11.44c-10.17,0-17.98,3.64-23.43,10.9
		c-5.45,7.27-8.17,17.26-8.17,29.97v74.65h-37.05V49.1h18.53c5.08,0,9.44,1.82,13.08,5.45c3.63,3.64,5.45,8,5.45,13.08v43.05
		c6.54-10.9,15.8-17.79,27.79-20.71c11.99-2.9,23.43-2.18,34.33,2.18c10.17,4.36,18.71,11.26,25.61,20.71
		c6.9,9.45,10.35,22.53,10.35,39.23v84.46h-36.51v-75.2c0-5.45-0.46-10.44-1.36-14.99C266.7,141.83,264.61,137.2,261.34,132.47z"/>
	<path class="st0" d="M452.39,91.6v85.01c0,25.8-6.73,42.69-20.16,50.68c-13.44,8-28.16,11.99-44.14,11.99
		c-15.62-0.73-29.89-5.08-42.78-13.08c-12.9-7.99-19.34-24.52-19.34-49.59V91.6h38.14v92.64c0,8.72,2.54,15.08,7.63,19.07
		c5.08,4,10.9,5.99,17.44,5.99s12.44-1.99,17.71-5.99c5.26-3.99,7.9-10.35,7.9-19.07v-74.11c0-5.08,1.72-9.44,5.18-13.08
		c3.45-3.63,7.9-5.45,13.35-5.45H452.39z"/>
	<path class="st0" d="M598.76,236.55h-19.07c-5.45,0-9.9-1.72-13.35-5.18c-3.46-3.45-5.18-7.9-5.18-13.35v-74.11
		c0-8.72-2.64-15.07-7.9-19.07c-5.27-3.99-11.17-5.99-17.71-5.99s-12.35,2-17.44,5.99c-5.09,4-7.63,10.35-7.63,19.07v92.64h-38.14
		v-85.01c0-24.7,6.45-41.23,19.34-49.59c12.89-8.35,27.15-12.89,42.78-13.62c15.98,0,30.69,4.18,44.14,12.53
		c13.44,8.36,20.16,25.25,20.16,50.68V236.55z"/>
	<path class="st0" d="M971.96,191.87h27.25c-4,15.26-11.63,26.89-22.89,34.88c-11.26,8.36-25.43,12.53-42.5,12.53
		c-20.71,0-36.88-6.72-48.5-20.16c-11.63-13.08-17.44-31.78-17.44-56.13c0-23.24,5.63-41.41,16.89-54.49
		c11.62-13.44,27.79-20.16,48.5-20.16c21.8,0,38.69,6.54,50.68,19.62c11.62,13.44,17.44,32.15,17.44,56.13c0,1.46,0,2.72,0,3.81
		s0,1.82,0,2.18c0,1.82-0.19,3.09-0.54,3.81h-94.27c0.36,11.26,3.08,19.62,8.17,25.07c4.72,5.82,11.8,8.72,21.25,8.72
		c6.17,0,11.44-1.27,15.8-3.81c1.09-0.36,2.09-1,3-1.91c0.9-0.9,1.91-1.91,3-3c0.36-1.09,1.72-2.54,4.09-4.36
		C964.24,192.78,967.61,191.87,971.96,191.87z M906.57,149.36h55.58c-0.73-9.81-3.27-17.07-7.63-21.8
		c-4.73-5.08-11.44-7.63-20.16-7.63c-8,0-14.53,2.55-19.62,7.63C909.66,132.66,906.93,139.92,906.57,149.36z"/>
	<path class="st0" d="M1021.33,236.55v-70.29c0-14.17,2.09-26.06,6.27-35.69c4.17-9.62,9.89-17.34,17.17-23.16
		c6.9-5.45,14.99-9.44,24.25-11.99c9.26-2.54,18.8-3.81,28.61-3.81c0.72,0,1.63,0,2.72,0s1.99,0,2.72,0v38.69h-12.53
		c-10.54,0-18.35,2.55-23.43,7.63c-5.09,5.09-7.63,13.08-7.63,23.98v74.65H1021.33z"/>
	<path class="st1" d="M1288.13,171.7c-1.82,21.8-10,38.88-24.52,51.22c-14.9,11.99-34.52,17.98-58.85,17.98
		c-28.34,0-49.95-8.53-64.85-25.61c-14.9-16.35-22.34-40.5-22.34-72.47c0-32.7,7.63-57.22,22.89-73.56
		c15.62-17.07,38.14-25.61,67.57-25.61c23.98,0,43.05,5.99,57.22,17.98c13.44,11.63,21.06,27.98,22.89,49.04h-23.43
		c-8.72,0-14.9-3.81-18.53-11.44c-2.55-4.72-5.64-8.9-9.26-12.53c-7.27-5.45-16.89-8.17-28.88-8.17c-16.71,0-29.61,5.45-38.69,16.35
		c-8.72,10.9-13.08,26.89-13.08,47.95c0,20.35,4.36,35.96,13.08,46.86c8.35,11.26,20.89,16.89,37.6,16.89
		c11.62,0,21.25-2.9,28.88-8.72c6.9-5.45,11.8-14.17,14.71-26.16H1288.13z"/>
	<path class="st1" d="M1310.25,236.55V68.71c0-5.45,1.91-10.08,5.72-13.9s8.45-5.9,13.9-6.27h37.6l37.05,143.31l37.05-143.31h57.22
		v188h-35.96V85.06l-38.14,151.49h-39.78l-38.69-151.49v151.49H1310.25z"/>
	<path class="st1" d="M1522.01,178.24h38.14c1.45,10.9,5.63,18.53,12.53,22.89c7.26,5.09,17.25,7.63,29.97,7.63
		c11.26,0,19.8-1.99,25.61-5.99c5.81-3.99,8.72-9.81,8.72-17.44c0-11.62-16.35-21.06-49.04-28.34l-1.09-0.54l-4.36-1.09
		c-18.53-3.99-30.88-8.17-37.05-12.53c-7.27-3.99-12.35-9.81-15.26-17.44c-3.64-6.54-5.45-14.89-5.45-25.07
		c0-17.79,6.17-31.78,18.53-41.96c12.35-9.81,30.33-14.71,53.95-14.71c22.15,0,39.23,5.09,51.22,15.26
		c12.35,11.26,18.88,25.98,19.62,44.14h-21.8c-8.36,0-14.36-3.81-17.98-11.44c-1.82-3.63-4.36-6.72-7.63-9.26
		c-6.54-4.72-15.45-7.08-26.7-7.08c-10.9,0-18.71,2-23.43,5.99c-5.45,4-8.17,9.63-8.17,16.89c0,9.81,10.53,17.08,31.61,21.8
		c6.17,1.82,10.71,2.91,13.62,3.27c6.54,2.18,12.26,3.91,17.17,5.18c4.9,1.28,8.8,2.27,11.72,3c5.08,2.18,10.17,4.36,15.26,6.54
		c7.26,4.36,12.89,10,16.89,16.89c3.99,7.63,5.99,15.99,5.99,25.07c0,19.62-6.54,34.88-19.62,45.77
		c-13.08,10.17-31.61,15.26-55.58,15.26c-24.71,0-43.24-5.26-55.58-15.8C1530.36,214.57,1523.1,198.95,1522.01,178.24z"/>
	<g>
		<path class="st1" d="M627.01,179.85L627.01,179.85c4.04,7.41,13.31,10.14,20.72,6.1l86.51-46.74c7.16-3.9,7.71-11.42,7.71-20.25
			l0.11-19.18l-108.94,59.35C625.71,163.17,622.98,172.44,627.01,179.85z"/>
		<path class="st1" d="M865.31,0l-33.43,5.27l-65.05,254.23l21.5-0.19c6.27-0.05,11.78-4.49,13.39-10.77L865.31,0z"/>
		<g>
			<path class="st1" d="M627.07,165.49L627.07,165.49c-4.02,7.58-1.14,16.99,6.44,21.01l109.34,58.04l0.25-35.05l-95.02-50.44
				C640.5,155.03,631.09,157.91,627.07,165.49z"/>
		</g>
	</g>
</g>
</svg>
