<svg id="Layer_1" enable-background="new 0 0 512 512" height="512" viewBox="0 0 512 512" width="512" xmlns="http://www.w3.org/2000/svg"><g><g><g fill="#b5e8e0"><path d="m74.958 512h-.08c-13.206 0-23.911-10.705-23.911-23.911v-464.178c0-13.206 10.705-23.911 23.91-23.911h.08c13.205 0 23.911 10.705 23.911 23.911v464.179c0 13.205-10.705 23.91-23.91 23.91z"/><path d="m256.62 512h-.08c-13.205 0-23.911-10.705-23.911-23.911v-464.178c0-13.206 10.705-23.911 23.91-23.911h.08c13.206 0 23.911 10.705 23.911 23.911v464.179c0 13.205-10.705 23.91-23.91 23.91z"/><path d="m438.282 512h-.08c-13.205 0-23.911-10.705-23.911-23.911v-464.178c0-13.206 10.705-23.911 23.911-23.911h.08c13.206 0 23.911 10.705 23.911 23.911v464.179c-.001 13.205-10.706 23.91-23.911 23.91z"/></g><g><path d="m108.835 247.564h-70.154c-18.167 0-32.895-14.727-32.895-32.895v-127.004c0-18.167 14.727-32.895 32.895-32.895h70.154c18.167 0 32.895 14.727 32.895 32.895v127.004c0 18.168-14.727 32.895-32.895 32.895z" fill="#ffd88f"/></g><path d="m108.835 54.771h-41.207c18.167 0 32.895 14.727 32.895 32.895v127.004c0 18.167-14.727 32.895-32.895 32.895h41.207c18.167 0 32.895-14.727 32.895-32.895v-127.005c0-18.167-14.727-32.894-32.895-32.894z" fill="#ffc963"/><g><path d="m291.657 455.586h-70.154c-18.167 0-32.895-14.727-32.895-32.895v-127.003c0-18.167 14.727-32.895 32.895-32.895h70.154c18.167 0 32.895 14.727 32.895 32.895v127.004c-.001 18.167-14.728 32.894-32.895 32.894z" fill="#ff7893"/></g><path d="m291.657 262.793h-41.207c18.167 0 32.895 14.728 32.895 32.895v127.004c0 18.167-14.727 32.895-32.895 32.895h41.207c18.167 0 32.895-14.727 32.895-32.895v-127.004c-.001-18.168-14.728-32.895-32.895-32.895z" fill="#ff5e7f"/><g><path d="m473.319 336.186h-70.154c-18.167 0-32.895-14.727-32.895-32.895v-127.004c0-18.167 14.727-32.895 32.895-32.895h70.154c18.167 0 32.895 14.727 32.895 32.895v127.004c-.001 18.167-14.728 32.895-32.895 32.895z" fill="#ff9e5e"/></g><path d="m473.319 143.393h-41.207c18.167 0 32.895 14.727 32.895 32.895v127.004c0 18.167-14.727 32.895-32.895 32.895h41.207c18.167 0 32.895-14.728 32.895-32.895v-127.005c-.001-18.167-14.728-32.894-32.895-32.894z" fill="#fa8d46"/></g><g fill="#fff7e8"><g><path d="m49.808 111.243h47.901c4.267 0 7.726-3.459 7.726-7.726 0-4.268-3.459-7.726-7.726-7.726h-47.901c-4.267 0-7.726 3.459-7.726 7.726-.001 4.268 3.459 7.726 7.726 7.726z"/><path d="m97.709 143.441h-47.901c-4.267 0-7.726 3.459-7.726 7.726 0 4.268 3.459 7.726 7.726 7.726h47.901c4.267 0 7.726-3.459 7.726-7.726.001-4.268-3.459-7.726-7.726-7.726z"/><path d="m97.709 191.092h-47.901c-4.267 0-7.726 3.459-7.726 7.726 0 4.268 3.459 7.726 7.726 7.726h47.901c4.267 0 7.726-3.459 7.726-7.726.001-4.268-3.459-7.726-7.726-7.726z"/></g><g><path d="m232.629 319.266h47.901c4.267 0 7.726-3.459 7.726-7.726s-3.459-7.726-7.726-7.726h-47.901c-4.267 0-7.726 3.459-7.726 7.726s3.459 7.726 7.726 7.726z"/><path d="m280.53 351.463h-47.901c-4.267 0-7.726 3.459-7.726 7.726 0 4.268 3.459 7.726 7.726 7.726h47.901c4.267 0 7.726-3.459 7.726-7.726.001-4.267-3.459-7.726-7.726-7.726z"/><path d="m280.53 399.114h-47.901c-4.267 0-7.726 3.459-7.726 7.726 0 4.268 3.459 7.726 7.726 7.726h47.901c4.267 0 7.726-3.459 7.726-7.726.001-4.268-3.459-7.726-7.726-7.726z"/></g><g><path d="m414.291 199.865h47.901c4.267 0 7.726-3.459 7.726-7.726 0-4.268-3.459-7.726-7.726-7.726h-47.901c-4.267 0-7.726 3.459-7.726 7.726-.001 4.267 3.459 7.726 7.726 7.726z"/><path d="m462.192 232.062h-47.901c-4.267 0-7.726 3.459-7.726 7.726 0 4.268 3.459 7.726 7.726 7.726h47.901c4.267 0 7.726-3.459 7.726-7.726.001-4.267-3.459-7.726-7.726-7.726z"/><path d="m462.192 279.713h-47.901c-4.267 0-7.726 3.459-7.726 7.726s3.459 7.726 7.726 7.726h47.901c4.267 0 7.726-3.459 7.726-7.726s-3.459-7.726-7.726-7.726z"/></g></g></g></svg>