<?xml version="1.0" encoding="iso-8859-1"?>
<!-- Generator: Adobe Illustrator 19.0.0, SVG Export Plug-In . SVG Version: 6.00 Build 0)  -->
<svg version="1.1" id="Capa_1" xmlns="http://www.w3.org/2000/svg" xmlns:xlink="http://www.w3.org/1999/xlink" x="0px" y="0px"
	 viewBox="0 0 512 512" style="enable-background:new 0 0 512 512;" xml:space="preserve">
<path style="fill:#B5EFFF;" d="M512,192.988v126.023c0,22.589-18.385,40.964-40.964,40.964H40.964C18.375,359.975,0,341.6,0,319.012
	V192.988c0-22.589,18.375-40.964,40.964-40.964h430.073C493.615,152.025,512,170.4,512,192.988z"/>
<path style="fill:#80DBFF;" d="M512,192.988v126.023c0,22.589-18.385,40.964-40.964,40.964H256V152.025h215.036
	C493.615,152.025,512,170.4,512,192.988z"/>
<path style="fill:#FFFFFF;" d="M408.469,204.076c-23.582,0-42.766,19.185-42.766,42.766c0,6.835,1.62,13.294,4.483,19.03
	l-18.178,18.178c-5.863,5.863-5.863,15.368,0,21.23c2.931,2.931,6.774,4.397,10.615,4.397c3.841,0,7.684-1.465,10.615-4.398
	l18.914-18.914c5.031,2.085,10.541,3.243,16.317,3.243c23.582,0,42.766-19.185,42.766-42.766S432.05,204.076,408.469,204.076z
	 M408.469,259.584c-7.027,0-12.741-5.716-12.741-12.741c0-7.026,5.716-12.741,12.741-12.741s12.741,5.716,12.741,12.741
	C421.211,253.868,415.495,259.584,408.469,259.584z"/>
<path style="fill:#549CFF;" d="M282.692,292.72c0,8.287-6.726,15.012-15.012,15.012H67.696c-8.297,0-15.012-6.726-15.012-15.012
	c0-8.297,6.716-15.012,15.012-15.012H267.68C275.966,277.708,282.692,284.423,282.692,292.72z"/>
<path style="fill:#4A7AFF;" d="M282.692,292.72c0,8.287-6.726,15.012-15.012,15.012H256v-30.025h11.68
	C275.966,277.708,282.692,284.423,282.692,292.72z"/>
<g>
</g>
<g>
</g>
<g>
</g>
<g>
</g>
<g>
</g>
<g>
</g>
<g>
</g>
<g>
</g>
<g>
</g>
<g>
</g>
<g>
</g>
<g>
</g>
<g>
</g>
<g>
</g>
<g>
</g>
</svg>
