<?xml version="1.0" encoding="utf-8"?>
<!-- Generator: Adobe Illustrator 23.0.2, SVG Export Plug-In . SVG Version: 6.00 Build 0)  -->
<svg version="1.1" id="Capa_1" xmlns="http://www.w3.org/2000/svg" xmlns:xlink="http://www.w3.org/1999/xlink" x="0px" y="0px"
	 viewBox="0 0 512 512" style="enable-background:new 0 0 512 512;" xml:space="preserve">
<style type="text/css">
	.st0{fill:#26457D;}
	.st1{fill:#30579D;}
	.st2{fill:#88C1FF;}
	.st3{fill:#F6F9F9;}
	.st4{fill:#DAE7EF;}
	.st5{fill:#FF7384;}
	.st6{fill:#B3E281;}
	.st7{fill:#FFD961;}
</style>
<g>
	<path class="st0" d="M137,390.8h151.8v80.9H137L137,390.8z"/>
	<path class="st1" d="M362.9,408.6h-300C28.1,408.6,0,380.5,0,345.8V133.8C0,99.1,28.1,71,62.8,71h300c34.7,0,62.8,28.1,62.8,62.8
		v211.9C425.7,380.5,397.5,408.6,362.9,408.6z"/>
	<path class="st0" d="M83.4,408.6H62.8C28.1,408.6,0,380.5,0,345.8V133.8C0,99.1,28.1,71,62.8,71h20.6c-34.7,0-62.8,28.1-62.8,62.8
		v211.9C20.6,380.5,48.7,408.6,83.4,408.6L83.4,408.6z"/>
	<path class="st2" d="M62.8,373.7c-15.4,0-27.9-12.5-27.9-27.9V133.8c0-15.4,12.5-27.9,27.9-27.9h300c15.4,0,27.9,12.5,27.9,27.9
		v211.9c0,15.4-12.5,27.9-27.9,27.9L62.8,373.7L62.8,373.7z"/>
	<path class="st1" d="M308.5,500.8H117.2c-13.9,0-25.2-11.3-25.2-25.2c0-13.9,11.3-25.2,25.2-25.2h191.3c13.9,0,25.2,11.3,25.2,25.2
		C333.7,489.5,322.4,500.8,308.5,500.8L308.5,500.8z"/>
	<path class="st0" d="M179.3,500.8h-62.1c-13.9,0-25.2-11.3-25.2-25.2c0-7,2.8-13.2,7.4-17.8c4.6-4.6,10.9-7.4,17.8-7.4h62.1
		c-6.9,0-13.3,2.8-17.8,7.4c-4.6,4.6-7.4,10.9-7.4,17.8C154.1,489.5,165.4,500.8,179.3,500.8z"/>
	<path class="st3" d="M512,59.8v196.4c0,26.9-21.8,48.6-48.6,48.6H156.5c-26.9,0-48.6-21.8-48.6-48.6V59.8
		c0-26.9,21.8-48.6,48.6-48.6h306.9C490.2,11.2,512,33,512,59.8L512,59.8z"/>
	<path class="st4" d="M177,304.8h-20.6c-26.9,0-48.6-21.8-48.6-48.6V59.8c0-26.9,21.8-48.6,48.6-48.6H177
		c-26.9,0-48.6,21.8-48.6,48.6v196.4C128.4,283.1,150.2,304.8,177,304.8z"/>
	<path class="st5" d="M512,100.4v155.8c0,26.9-21.8,48.6-48.6,48.6H324.1c-2.2-12.3-12.1-22.3-25-24.3l-26.7-4.1
		c-26.9-4.1-34.9-39.1-12.4-54.4l22.3-15.3c12.9-8.8,16.9-26.2,9.1-39.7l-13.5-23.4C264.3,120,286.7,92,312.7,100l25.8,7.9
		c15,4.6,31-3.1,36.7-17.7l9.9-25.1c10-25.3,45.9-25.3,55.9,0l9.9,25.1c5.7,14.6,21.7,22.3,36.7,17.7L512,100.4z"/>
	<g>
		<path class="st3" d="M397,170.2c0-0.1-0.1-0.1-0.1-0.2c-1.4-3.3-4.6-5.5-8.2-5.5c0,0,0,0,0,0c-3.6,0-6.8,2.2-8.2,5.5
			c0,0.1,0,0.1-0.1,0.2l-18.3,48.1c-1.5,4,0.5,8.5,4.5,10s8.5-0.5,10-4.5l2.7-7H398l2.6,7c1.2,3.1,4.1,5,7.2,5
			c0.9,0,1.8-0.2,2.7-0.5c4-1.5,6-6,4.5-10L397,170.2z M385.2,201.3l3.5-9.3l3.5,9.3H385.2z"/>
		<path class="st3" d="M448.4,213.2C448.4,213.2,448.3,213.2,448.4,213.2c-3.2,0-6.5,0-9.3,0v-41c0-4.3-3.5-7.7-7.7-7.7
			s-7.7,3.5-7.7,7.7v48.7c0,3.8,2.7,7,6.4,7.6c0.6,0.1,0.9,0.2,6.3,0.2c2.6,0,6.5,0,12.1,0c4.3,0,7.7-3.5,7.7-7.8
			C456.1,216.7,452.6,213.2,448.4,213.2L448.4,213.2z"/>
		<path class="st3" d="M492.1,213.3h-12.6v-8.7h11.1c4.3,0,7.7-3.5,7.7-7.7s-3.5-7.7-7.7-7.7h-11.1v-8.7h12.6c4.3,0,7.7-3.5,7.7-7.7
			s-3.5-7.7-7.7-7.7h-20.4c-4.3,0-7.7,3.5-7.7,7.7V221c0,4.3,3.5,7.7,7.7,7.7h20.4c4.3,0,7.7-3.5,7.7-7.7S496.4,213.3,492.1,213.3z"
			/>
		<path class="st3" d="M341.5,189.7c-5.7-2.1-11-4.4-12.9-5.2c-0.5-0.5-0.5-1.1-0.5-1.5c0.2-1.2,1.2-2.1,2.7-2.6
			c6-1.8,11.7,2.6,11.9,2.8c3.3,2.7,8.1,2.3,10.8-1c2.7-3.3,2.3-8.1-0.9-10.9c-4.4-3.7-15-9.1-26.3-5.7c-7.3,2.2-12.5,8-13.6,15.2
			c-1,6.7,2,13.2,7.6,16.9c0.3,0.2,0.7,0.4,1.1,0.6c0.3,0.1,7,3.1,14.7,5.9c2.8,1,5.7,2.9,5.3,4.8c-0.3,1.7-2.7,4.2-6.9,4.2
			c-4.4,0-8.6-1.8-11.3-4.7c-2.9-3.2-7.8-3.4-10.9-0.5c-3.2,2.9-3.4,7.8-0.5,10.9c5.6,6.2,13.9,9.8,22.7,9.8
			c11.1,0,20.4-7.1,22.1-16.9C358,204.3,354.7,194.6,341.5,189.7L341.5,189.7z"/>
	</g>
	<path class="st6" d="M265,66.3H153c-4.3,0-7.7-3.5-7.7-7.7s3.5-7.7,7.7-7.7h112c4.3,0,7.7,3.5,7.7,7.7S269.3,66.3,265,66.3z"/>
	<path class="st6" d="M227,96.5h-74c-4.3,0-7.7-3.5-7.7-7.7s3.5-7.7,7.7-7.7h74c4.3,0,7.7,3.5,7.7,7.7S231.2,96.5,227,96.5z"/>
	<circle class="st7" cx="144.8" cy="266.2" r="65.8"/>
	<g>
		<path class="st5" d="M144.8,273.9c-4.3,0-7.7-3.5-7.7-7.7v-38c0-4.3,3.5-7.7,7.7-7.7s7.7,3.5,7.7,7.7v38
			C152.5,270.5,149,273.9,144.8,273.9z"/>
		<path class="st5" d="M144.8,306.8c-4.3,0-7.7-3.5-7.7-7.7v-0.5c0-4.3,3.5-7.7,7.7-7.7s7.7,3.5,7.7,7.7v0.5
			C152.5,303.3,149,306.8,144.8,306.8z"/>
	</g>
</g>
</svg>
