<svg height="512" viewBox="0 0 512 512" width="512" xmlns="http://www.w3.org/2000/svg"><g id="flat"><path d="m274.061 136h-2.061v-32h-208v32h-2.061a37.939 37.939 0 0 0 -37.939 37.939v276.061a38 38 0 0 0 38 38h212a38 38 0 0 0 38-38v-276.061a37.939 37.939 0 0 0 -37.939-37.939z" fill="#e6e5e0"/><path d="m225.953 296.558a19.676 19.676 0 0 1 12.809 12.066l2.812 7.663 6.568-4.845a19.677 19.677 0 0 1 17.339-3.008 19.674 19.674 0 0 1 13.991 19.766 24.063 24.063 0 0 1 -13.572 20.538l-39.863 19.262-22.65-38.045a24.063 24.063 0 0 1 0-24.616 19.676 19.676 0 0 1 22.566-8.781z" fill="#cb2527"/><path d="m147.737 419.6a19.676 19.676 0 0 1 15.74 7.87l4.9 6.529 4.9-6.529a19.674 19.674 0 0 1 15.739-7.87 19.674 19.674 0 0 1 19.087 14.9 24.063 24.063 0 0 1 -7.084 23.574l-32.645 29.926-32.639-29.919a24.061 24.061 0 0 1 -7.085-23.574 19.674 19.674 0 0 1 19.087-14.907z" fill="#cb2527"/><path d="m179.806 355.6a19.676 19.676 0 0 1 15.74 7.87l4.9 6.529 4.9-6.529a19.674 19.674 0 0 1 15.739-7.87 19.674 19.674 0 0 1 19.087 14.9 24.063 24.063 0 0 1 -7.084 23.574l-32.645 29.926-32.643-29.919a24.061 24.061 0 0 1 -7.085-23.574 19.674 19.674 0 0 1 19.091-14.907z" fill="#ea2b2d"/><path d="m135.787 293.578a19.674 19.674 0 0 1 17.392 2.675l6.661 4.717 2.664-7.715a19.675 19.675 0 0 1 12.575-12.309 19.674 19.674 0 0 1 22.732 8.346 24.061 24.061 0 0 1 .471 24.611l-21.916 38.473-40.23-18.494a24.06 24.06 0 0 1 -13.959-20.274 19.674 19.674 0 0 1 13.61-20.03z" fill="#cb2527"/><path d="m105.953 347.508a19.673 19.673 0 0 1 12.809 12.066l2.812 7.662 6.568-4.844a19.677 19.677 0 0 1 17.339-3.008 19.674 19.674 0 0 1 13.991 19.765 24.063 24.063 0 0 1 -13.572 20.539l-39.863 19.262-22.65-38.045a24.063 24.063 0 0 1 0-24.616 19.676 19.676 0 0 1 22.566-8.781z" fill="#ea2b2d"/><path d="m60.474 431.9a19.675 19.675 0 0 1 17.526 1.566l6.947 4.284 2.167-7.869a19.674 19.674 0 0 1 11.769-13.081 19.673 19.673 0 0 1 23.217 6.882 24.06 24.06 0 0 1 2.036 24.531l-19.423 39.787-41.325-15.9a24.063 24.063 0 0 1 -15.222-19.345 19.675 19.675 0 0 1 12.308-20.855z" fill="#ea2b2d"/><path d="m64 104h208v16h-208z" fill="#dcdbd6"/><rect fill="#e6e5e0" height="32" rx="16" width="272" x="32" y="72"/><path d="m432 456v-32h-40v-32h-80v96h152v-32z" fill="#7a4922"/><path d="m250.724 377.523a19.676 19.676 0 0 1 15.74 7.87l4.9 6.529 4.9-6.529a19.676 19.676 0 0 1 15.74-7.87 19.674 19.674 0 0 1 19.087 14.9 24.065 24.065 0 0 1 -7.091 23.577l-32.639 29.919-32.639-29.919a24.065 24.065 0 0 1 -7.085-23.574 19.674 19.674 0 0 1 19.087-14.903z" fill="#cb2527"/><path d="m213.653 429.2a19.676 19.676 0 0 1 17.393 2.675l6.661 4.717 2.663-7.715a19.674 19.674 0 0 1 12.576-12.309 19.674 19.674 0 0 1 22.732 8.346 24.063 24.063 0 0 1 .471 24.611l-21.916 38.475-40.233-18.494a24.064 24.064 0 0 1 -13.96-20.274 19.674 19.674 0 0 1 13.613-20.032z" fill="#ea2b2d"/><path d="m377.364 124.615-9.364 19.385 8 15.692v11.693h24.749v-11.693l5.846-11.692z" fill="#fdc9a6"/><path d="m360 171.385h52.441l23.385-40.923-35.826-58.462 16-16 45.453 61.646a26 26 0 0 1 2.329 27.057l-33.8 67.6v29.23h-76v-29.23l-37.23-51.183a24.846 24.846 0 0 1 -1.367-27.133l36.434-62.512 19.7 18.063-29.231 52.616z" fill="#d78e0c"/><path d="m377.364 124.615 2.1-3.149a18.137 18.137 0 0 1 24.422-5.492 18.136 18.136 0 0 1 6.89 23.663l-4.176 8.363z" fill="#7a4922"/><path d="m440 355.266-30.156-28.359-18.944-40-5.846 17.846v64.77h-29.23v-70.616l5.677-57.369h64.308l8.035 61.369 24 32z" fill="#529fff"/><path d="m355.98 369.615-5.847 10.693v11.692h35.473l-.396-22.385z" fill="#92d1f7"/><path d="m440 355.266 4.069 12.423 8.224 8.311 22.344-27.28-16.793-13.813z" fill="#92d1f7"/><path d="m356.85 24a20.712 20.712 0 0 1 16.569 8.284l5.155 6.874 5.155-6.874a20.711 20.711 0 0 1 16.571-8.284 20.711 20.711 0 0 1 20.09 15.688 25.328 25.328 0 0 1 -7.457 24.812l-34.359 31.5-34.359-31.5a25.331 25.331 0 0 1 -7.458-24.816 20.711 20.711 0 0 1 20.093-15.684z" fill="#ea2b2d"/></g></svg>