<svg id="Capa_1" enable-background="new 0 0 512 512" height="512" viewBox="0 0 512 512" width="512" xmlns="http://www.w3.org/2000/svg"><g><g><g><g><g><g><g><path d="m501.904 257.308v244.462c0 5.645-4.584 10.23-10.24 10.23h-219.088c-5.656 0-10.24-4.584-10.24-10.23v-244.462c0-5.656 4.584-10.23 10.24-10.23h75.924v73.534c0 2.802 2.277 5.079 5.079 5.079h41.733c2.802 0 5.079-2.277 5.079-5.079v-73.534h91.274c5.655.001 10.239 4.575 10.239 10.23z" fill="#fb9927"/><path d="m405.541 247.079v95.024c0 5.645-4.584 10.23-10.23 10.23h-41.733c-5.645 0-10.23-4.584-10.23-10.23v-95.024h5.151v73.534c0 2.802 2.277 5.079 5.079 5.079h41.733c2.802 0 5.079-2.277 5.079-5.079v-73.534z" fill="#f98824"/><path d="m467.04 257.305c0-5.648-4.584-10.232-10.232-10.232h34.862c5.648 0 10.232 4.584 10.232 10.232v244.463c0 5.648-4.584 10.232-10.232 10.232h-34.862c5.648 0 10.232-4.584 10.232-10.232" fill="#f98824"/><g><path d="m460.44 479.801h-68.088c-5.651 0-10.232-4.581-10.232-10.232v-38.38c0-5.651 4.581-10.232 10.232-10.232h68.088c5.651 0 10.232 4.581 10.232 10.232v38.38c0 5.651-4.581 10.232-10.232 10.232z" fill="#68dbf9"/><path d="m470.671 431.184v38.382c0 5.659-4.584 10.232-10.232 10.232h-27.065c5.648 0 10.232-4.574 10.232-10.232v-38.382c0-5.648-4.584-10.232-10.232-10.232h27.065c5.648 0 10.232 4.584 10.232 10.232z" fill="#24d1f8"/></g><g><path d="m405.541 320.609v-73.536h-62.192v73.536c0 5.651 4.581 10.232 10.232 10.232h41.727c5.652.001 10.233-4.58 10.233-10.232z" fill="#fee7c9"/></g></g></g><g><path d="m470.671 400.663h-56.54c-4.268 0-7.726-3.459-7.726-7.726s3.459-7.726 7.726-7.726h56.54c4.268 0 7.726 3.459 7.726 7.726s-3.458 7.726-7.726 7.726z" fill="#e8741c"/></g><g><path d="m470.671 377.589h-11.386c-4.268 0-7.726-3.459-7.726-7.726s3.459-7.726 7.726-7.726h11.386c4.268 0 7.726 3.459 7.726 7.726s-3.458 7.726-7.726 7.726z" fill="#e8741c"/></g></g></g><g><g><path d="m376.747 30.226v349.87h-163.036v131.863h-183.146c-11.301 0-20.47-9.158-20.47-20.459v-461.274c0-11.311 9.169-20.47 20.47-20.47h325.723c11.301 0 20.459 9.158 20.459 20.47z" fill="#24d1f8"/><g fill="#21c1f8"><path d="m376.747 369.866v10.23h-163.036v131.863h-31.616c-5.223-.464-9.313-4.852-9.313-10.188v-121.675c0-5.656 4.574-10.23 10.23-10.23z"/><path d="m376.758 30.256v349.839h-36.345v-349.839c0-11.301-9.158-20.459-20.47-20.459h36.345c11.301 0 20.47 9.158 20.47 20.459z"/></g></g><g><path d="m335.82 60.956v399.886c0 5.645-4.574 10.23-10.23 10.23h-264.323c-5.656 0-10.24-4.584-10.24-10.23v-399.886c0-5.656 4.584-10.23 10.24-10.23h264.324c5.656 0 10.229 4.574 10.229 10.23z" fill="#f2eff2"/><path d="m99.816 50.726v19.996c0 4.347 2.72 8.046 6.542 9.529-.072.783-.031 1.586.155 2.4l4.337 19.254c1.865 8.252 9.066 14.011 17.523 14.011h130.112c8.458 0 15.659-5.759 17.523-14.011l4.337-19.254c.185-.814.227-1.617.155-2.4 3.822-1.484 6.541-5.182 6.541-9.529v-19.996zm161.121 47.78c-.268 1.154-1.267 1.957-2.452 1.957h-130.112c-1.185 0-2.184-.804-2.442-1.957l-3.966-17.554h142.927z" fill="#e1dde1"/><path d="m335.82 369.866v90.975c0 5.645-4.574 10.23-10.23 10.23h-152.806v-90.975c0-5.656 4.574-10.23 10.23-10.23z" fill="#e1dde1"/><g><path d="m216.783 389.192v26.692c0 5.687-4.615 10.302-10.302 10.302h-96.363c-5.697 0-10.302-4.615-10.302-10.302v-26.692c0-5.687 4.605-10.302 10.302-10.302h96.363c5.687 0 10.302 4.616 10.302 10.302z" fill="#23f1a8"/><path d="m216.783 389.192v26.692c0 5.687-4.615 10.302-10.302 10.302h-33.697v-46.09c0-.412.021-.814.072-1.205h33.625c5.687-.001 10.302 4.615 10.302 10.301z" fill="#26d192"/></g><path d="m302.551 60.955c0-5.648-4.584-10.232-10.232-10.232h33.276c5.648 0 10.232 4.584 10.232 10.232v399.883c0 5.648-4.584 10.232-10.232 10.232h-33.276c5.648 0 10.232-4.584 10.232-10.232" fill="#e1dde1"/></g><g><g><g><path d="m258.949 100.463h-131.039c-7.98 0-15.081-5.36-17.269-13.035l-7.114-24.964c-1.169-4.104 1.209-8.378 5.313-9.548 4.108-1.168 8.379 1.209 9.548 5.313l7.114 24.964c.305 1.069 1.295 1.817 2.407 1.817h131.038c1.113 0 2.103-.747 2.407-1.817l7.114-24.963c1.17-4.104 5.443-6.48 9.548-5.313 4.104 1.17 6.482 5.444 5.313 9.548l-7.114 24.964c-2.185 7.674-9.286 13.034-17.266 13.034z" fill="#918291"/></g></g><path d="m276.807 65.502h-166.756c-5.651 0-10.232-4.581-10.232-10.232v-45.033c0-5.651 4.581-10.232 10.232-10.232h166.757c5.651 0 10.232 4.581 10.232 10.232v45.032c0 5.651-4.581 10.233-10.233 10.233z" fill="#fee265"/><path d="m287.04 10.232v45.033c0 5.658-4.584 10.232-10.232 10.232h-33.378c5.659 0 10.232-4.574 10.232-10.232v-45.033c0-5.648-4.574-10.232-10.232-10.232h33.378c5.648 0 10.232 4.584 10.232 10.232z" fill="#fdd330"/></g></g><g><g><path d="m412.34 380.096v121.674c0 5.645-4.584 10.23-10.24 10.23h-188.389c-5.656 0-10.24-4.584-10.24-10.23v-121.674c0-5.656 4.584-10.23 10.24-10.23h75.924v55.115c0 2.802 2.277 5.079 5.079 5.079h26.383c2.802 0 5.079-2.277 5.079-5.079v-55.115h75.924c5.656 0 10.24 4.574 10.24 10.23z" fill="#fcb44d"/><path d="m331.327 369.866v76.604c0 5.645-4.585 10.23-10.23 10.23h-26.383c-5.645 0-10.23-4.584-10.23-10.23v-76.604h5.151v55.115c0 2.802 2.277 5.079 5.079 5.079h26.383c2.802 0 5.079-2.277 5.079-5.079v-55.115z" fill="#fca62f"/><path d="m412.34 380.094v121.674c0 5.648-4.584 10.232-10.232 10.232h-34.862c5.648 0 10.232-4.584 10.232-10.232v-121.674c0-5.648-4.584-10.232-10.232-10.232h34.862c5.648-.001 10.232 4.584 10.232 10.232z" fill="#fca62f"/><path d="m331.328 424.98v-55.117h-46.844v55.117c0 5.651 4.581 10.232 10.232 10.232h26.379c5.651.001 10.233-4.581 10.233-10.232z" fill="#fee7c9"/></g><g><path d="m248.222 465.086h-14.092c-4.268 0-7.726-3.459-7.726-7.726s3.459-7.726 7.726-7.726h14.093c4.268 0 7.726 3.459 7.726 7.726s-3.459 7.726-7.727 7.726z" fill="#fb9927"/></g><g><path d="m291.981 489.947h-57.851c-4.268 0-7.726-3.459-7.726-7.726s3.459-7.726 7.726-7.726h57.851c4.268 0 7.726 3.459 7.726 7.726s-3.458 7.726-7.726 7.726z" fill="#fb9927"/></g></g></g><g><g><g><path d="m235.014 233.528h-126.853c-4.268 0-7.726-3.459-7.726-7.726s3.459-7.726 7.726-7.726h126.853c4.268 0 7.726 3.459 7.726 7.726s-3.458 7.726-7.726 7.726z" fill="#cecece"/></g><g><path d="m280.879 242.482c-2.049 0-4.014-.814-5.464-2.263l-9.396-9.397c-3.017-3.018-3.017-7.909.001-10.927 3.017-3.018 7.909-3.018 10.927 0l3.933 3.933 12.444-12.444c3.018-3.017 7.909-3.017 10.928 0 3.017 3.017 3.017 7.909 0 10.927l-17.907 17.907c-1.452 1.45-3.416 2.264-5.466 2.264z" fill="#23f1a8"/></g></g><g><g><path d="m235.014 276.001h-126.853c-4.268 0-7.726-3.459-7.726-7.726s3.459-7.726 7.726-7.726h126.853c4.268 0 7.726 3.459 7.726 7.726s-3.458 7.726-7.726 7.726z" fill="#cecece"/></g><g><path d="m280.879 284.955c-2.049 0-4.014-.814-5.464-2.263l-9.396-9.397c-3.017-3.018-3.017-7.909.001-10.927 3.017-3.018 7.909-3.017 10.927 0l3.933 3.933 12.444-12.444c3.018-3.017 7.909-3.017 10.928 0 3.017 3.017 3.017 7.909 0 10.927l-17.907 17.907c-1.452 1.45-3.416 2.264-5.466 2.264z" fill="#23f1a8"/></g></g><g><g><path d="m235.014 318.474h-126.853c-4.268 0-7.726-3.459-7.726-7.726s3.459-7.726 7.726-7.726h126.853c4.268 0 7.726 3.459 7.726 7.726s-3.458 7.726-7.726 7.726z" fill="#cecece"/></g><g><path d="m280.879 327.428c-2.049 0-4.014-.814-5.464-2.263l-9.396-9.397c-3.017-3.018-3.017-7.909.001-10.927 3.017-3.018 7.909-3.018 10.927 0l3.933 3.933 12.444-12.444c3.018-3.017 7.909-3.017 10.928 0 3.017 3.017 3.017 7.909 0 10.927l-17.907 17.907c-1.452 1.45-3.416 2.264-5.466 2.264z" fill="#23f1a8"/></g></g></g><g><g><path d="m194.7 189.105c-17.797 0-32.275-14.478-32.275-32.274s14.478-32.274 32.275-32.274c8.433 0 16.41 3.233 22.464 9.103 2.965 2.876 3.144 7.575.405 10.668l-17.156 19.379c-2.828 3.195-7.711 3.492-10.906.664s-3.492-7.712-.663-10.906l11.158-12.604c-1.69-.559-3.476-.851-5.302-.851-9.276 0-16.822 7.546-16.822 16.821s7.546 16.821 16.822 16.821c6.441 0 12.219-3.592 15.081-9.373 1.893-3.823 6.525-5.391 10.353-3.496 3.824 1.893 5.389 6.528 3.496 10.352-5.487 11.084-16.573 17.97-28.93 17.97z" fill="#26d192"/></g></g></g><g><g id="XMLID_61_"><path d="m128.356 40.533c-4.268 0-7.726-3.459-7.726-7.726v-.107c0-4.267 3.459-7.726 7.726-7.726s7.726 3.459 7.726 7.726v.107c0 4.266-3.458 7.726-7.726 7.726z" fill="#edbe26"/></g><g id="XMLID_244_"><path d="m258.491 40.533c-4.268 0-7.726-3.459-7.726-7.726v-.107c0-4.267 3.459-7.726 7.726-7.726 4.268 0 7.726 3.459 7.726 7.726v.107c0 4.266-3.458 7.726-7.726 7.726z" fill="#edbe26"/></g></g></g></svg>