<svg id="flat" height="512" viewBox="0 0 512 512" width="512" xmlns="http://www.w3.org/2000/svg"><path d="m240 144h32v32h-32z" fill="#bed3f7"/><path d="m24 496v-200a40 40 0 0 1 40-40h120a40 40 0 0 1 40 40v200z" fill="#548aff"/><circle cx="312" cy="320" fill="#ffc431" r="112"/><circle cx="312" cy="320" fill="#ffb401" r="80"/><path d="m128 296-8-16 16-16 16 16-8 16z" fill="#e04f2b"/><path d="m128 296h16l16 88-40.595-41.802z" fill="#ef5e3b"/><path d="m156.686 296-20.686-20.686-20.686 20.686a8.00018 8.00018 0 0 1 -11.31371.00024 8.00018 8.00018 0 0 1 -.00029-11.31424l26.34278-26.34278a8.00122 8.00122 0 0 1 11.31446 0l26.34276 26.34278a8.00018 8.00018 0 0 1 -.00025 11.3142 8.00018 8.00018 0 0 1 -11.31375-.0002z" fill="#4976f2"/><path d="m136 264a32 32 0 0 1 -32-32v-16l24-24h40v40a32 32 0 0 1 -32 32z" fill="#ffceb6"/><path d="m168 192 3.02944-3.02944a16.97054 16.97054 0 0 0 4.97056-12 16.97054 16.97054 0 0 0 -16.97055-16.97056h-23.02945a32 32 0 0 0 -32 32v24l24-24z" fill="#c47220"/><rect fill="#4976f2" height="45.092" rx="8" transform="matrix(.747 -.664 .664 .747 -190.443 156.793)" width="16" x="102.978" y="306.305"/><rect fill="#4976f2" height="51.23" rx="8" transform="matrix(.753 -.659 .659 .753 -223.171 132.601)" width="16" x="56.868" y="337.662"/><path d="m312 296h24v-16h-16v-16h-16v17.37622a23.99787 23.99787 0 0 0 8 46.62378 8 8 0 0 1 0 16h-24v16h16v16h16v-17.37622a23.99787 23.99787 0 0 0 -8-46.62378 8 8 0 0 1 0-16z" fill="#ffd873"/><g fill="#d1e4ff"><path d="m232 16h16v16h-16z"/><path d="m480 168h16v16h-16z"/><path d="m280 144a8.00008 8.00008 0 0 0 -8-8h-24v-88h-16v128a8.00008 8.00008 0 0 0 8 8h224v-16h-184zm-32 24v-16h16v16z"/></g><path d="m125.95745 345.70213-44.22245 36.85208 33.53181 38.322a56 56 0 0 0 42.14419 19.12379h98.589a24 24 0 0 0 24-24v-32h-32v-18.34315a5.65685 5.65685 0 0 0 -5.65685-5.65685 5.65684 5.65684 0 0 0 -4 1.65685l-22.34315 22.34315h-56l-34.04259-38.29791z" fill="#ffceb6"/><path d="m384 64-40 24-40-40-40 32v40h32v32h200v-13.333z" fill="#02c26a"/></svg>