<?xml version="1.0" encoding="utf-8"?>
<!-- Generator: Adobe Illustrator 23.0.2, SVG Export Plug-In . SVG Version: 6.00 Build 0)  -->
<svg version="1.1" id="Layer_1" xmlns="http://www.w3.org/2000/svg" xmlns:xlink="http://www.w3.org/1999/xlink" x="0px" y="0px"
	 viewBox="0 0 512 512" style="enable-background:new 0 0 512 512;" xml:space="preserve">
<style type="text/css">
	.st0{fill:#FF9F70;}
	.st1{fill:#FFBD8E;}
	.st2{fill:#E18152;}
	.st3{fill:#526FAA;}
	.st4{fill:#395288;}
	.st5{fill:#708DC8;}
	.st6{fill:#FCC24C;}
	.st7{fill:#DEA42E;}
	.st8{fill:#FCE06A;}
	.st9{fill:#7BAC51;}
	.st10{fill:#5D8E33;}
	.st11{fill:#99CA6F;}
	.st12{fill:#FFFFFF;}
</style>
<g>
	<g>
		<path class="st0" d="M394.1,504H263.7v-30.7c-17.4,0-31.6-14.1-31.6-31.6v-3.2c-4.1,0-8.1-0.5-11.8-1.5c-3-0.8-5.9-1.8-8.7-3.2
			c-0.7-0.3-1.4-0.7-2-1c-14.8-8-24.8-23.7-24.8-41.6v-83.8c0-3,0.6-5.8,1.6-8.5c3.4-8.9,12-15.2,22.1-15.2
			c12.1,0,22.1,9.2,23.5,20.9V176.1c0-13.1,10.2-24.3,23.3-24.5c13.3-0.2,24.2,10.5,24.2,23.7v-20.9c0-13.3,10.9-24,24.2-23.7
			c13.1,0.2,23.3,11.5,23.3,24.5v20.1c0-13.3,10.9-24,24.2-23.7c13.1,0.2,23.3,11.5,23.3,24.5v20.1c0-13.3,10.9-24,24.2-23.7
			c13.1,0.2,23.3,11.5,23.3,24.5v110.5v0.7v137c0,15.4-12.5,27.9-27.9,27.9L394.1,504z"/>
	</g>
	<g>
		<g>
			<path class="st1" d="M250.2,441.7c0-1.7-1.3-3.1-3-3.3c-3-0.2-6-0.7-8.8-1.4c-3-0.8-5.9-1.8-8.7-3.2c-0.7-0.3-1.4-0.7-2-1
				c-14.8-8-24.8-23.7-24.8-41.6v-83.8c0-3,0.6-5.8,1.6-8.5c2.3-6.1,7.1-10.9,13.1-13.4c-2.8-1.1-5.8-1.8-9-1.8
				c-10.1,0-18.7,6.3-22.1,15.2c-1,2.6-1.6,5.5-1.6,8.5v83.8c0,18,10,33.6,24.8,41.6c0.7,0.4,1.4,0.7,2,1c2.8,1.3,5.7,2.4,8.7,3.2
				c3.8,1,7.7,1.5,11.8,1.5v3.2c0,17.4,14.1,31.6,31.6,31.6V504h18v-27.6c0-1.7-1.3-3.1-3-3.3C262.7,471.6,250.2,458.1,250.2,441.7
				L250.2,441.7z"/>
		</g>
	</g>
	<g>
		<g>
			<path class="st2" d="M399.9,172.5c-3.8-0.3-7.5,0.4-10.8,1.8c8.8,3.7,14.9,12.6,14.9,22.7v110.5v0.7v137
				c0,14.4-10.9,26.2-24.9,27.7c-1.7,0.2-2.9,1.6-2.9,3.2V504h18v-31c15.4,0,27.9-12.5,27.9-27.9v-137v-0.7V197
				C422,184.4,412.5,173.4,399.9,172.5L399.9,172.5z"/>
		</g>
	</g>
	<g>
		<ellipse class="st3" cx="139.1" cy="215.1" rx="49" ry="49"/>
	</g>
	<g>
		<path class="st4" d="M139,166.1c-2,0-4,0.1-6,0.4c24.2,3,43,23.6,43,48.6s-18.8,45.6-43,48.6c2,0.2,4,0.4,6,0.4
			c27,0,49-21.9,49-49C187.9,188,166,166.1,139,166.1L139,166.1z"/>
	</g>
	<g>
		<path class="st5" d="M139,264c2,0,4-0.1,6-0.4c-24.2-3-43-23.6-43-48.6s18.8-45.6,43-48.6c-2-0.2-4-0.4-6-0.4c-27,0-49,21.9-49,49
			S111.9,264,139,264z"/>
	</g>
	<g>
		<ellipse class="st6" cx="139" cy="56.9" rx="49" ry="49"/>
	</g>
	<g>
		<path class="st7" d="M139,8c-2,0-4,0.1-6,0.4c24.2,3,43,23.6,43,48.6c0,25-18.8,45.6-43,48.6c2,0.2,4,0.4,6,0.4
			c27,0,49-21.9,49-49C187.9,29.9,166,8,139,8L139,8z"/>
	</g>
	<g>
		<path class="st8" d="M139,105.9c2,0,4-0.1,6-0.4c-24.2-3-43-23.6-43-48.6s18.8-45.6,43-48.6c-2-0.2-4-0.4-6-0.4
			c-27,0-49,21.9-49,49C90,84,111.9,105.9,139,105.9z"/>
	</g>
	<g>
		<ellipse class="st9" cx="297" cy="57" rx="49" ry="49"/>
	</g>
	<g>
		<path class="st10" d="M297,8c-2,0-4,0.1-6,0.4c24.2,3,43,23.6,43,48.6s-18.8,45.6-43,48.6c2,0.2,4,0.4,6,0.4c27,0,49-21.9,49-49
			S324.1,8,297,8z"/>
	</g>
	<g>
		<path class="st11" d="M297,105.9c2,0,4-0.1,6-0.4c-24.2-3-43-23.6-43-48.6s18.8-45.6,43-48.6c-2-0.2-4-0.4-6-0.4
			c-27,0-49,21.9-49,49S270,105.9,297,105.9z"/>
	</g>
	<g>
		<path class="st12" d="M394.1,508H263.7c-2.2,0-4-1.8-4-4v-26.9c-17.5-2-31.2-16.7-31.6-34.7c-3-0.2-5.9-0.7-8.8-1.5
			c-3.2-0.8-6.4-2-9.4-3.5c-0.7-0.4-1.5-0.7-2.2-1.1c-16.6-9-26.9-26.3-26.9-45.1v-83.8c0-3.4,0.6-6.7,1.9-9.9
			c4.1-10.6,14.5-17.8,25.8-17.8c7.6,0,14.5,3,19.5,8V176.1c0-15.5,12.2-28.3,27.2-28.5c7.5-0.2,14.6,2.7,20,7.9
			c0.1,0.1,0.2,0.2,0.3,0.3v-1.4c0-7.5,3-14.5,8.3-19.8c5.4-5.3,12.5-8.1,20-7.9c15,0.3,27.2,13.1,27.2,28.5v0.6
			c0.1-0.1,0.2-0.2,0.3-0.3c5.4-5.3,12.4-8.1,20-7.9c15,0.3,27.2,13.1,27.2,28.5v0.6c0.1-0.1,0.2-0.2,0.3-0.3
			c5.4-5.3,12.4-8.1,20-7.9c15,0.3,27.2,13.1,27.2,28.5v248.2c0,16.2-12.2,29.6-27.9,31.6V504C398.1,506.2,396.3,508,394.1,508
			L394.1,508z M267.7,500h122.4v-27c0-2.2,1.8-4,4-4c13.2,0,23.9-10.7,23.9-23.9V197c0-11.1-8.7-20.3-19.4-20.5
			c-5.3-0.1-10.4,1.9-14.2,5.7c-3.8,3.7-5.9,8.8-5.9,14.1c0,2.2-1.8,4-4,4s-4-1.8-4-4v-20.1c0-11.1-8.7-20.3-19.4-20.5
			c-5.3-0.1-10.4,1.9-14.2,5.7c-3.8,3.7-5.9,8.8-5.9,14.1c0,2.2-1.8,4-4,4c-2.2,0-4-1.8-4-4v-20.1c0-11.1-8.7-20.3-19.4-20.5
			c-5.4-0.1-10.4,1.9-14.2,5.7c-3.8,3.7-5.9,8.8-5.9,14.1v20.9c0,2.2-1.8,4-4,4c-2.2,0-4-1.8-4-4c0-5.3-2.1-10.4-5.9-14.1
			c-3.8-3.7-8.9-5.7-14.2-5.7c-10.7,0.2-19.4,9.4-19.4,20.5v128.6c0,2.1-1.7,3.9-3.8,4c-2.1,0.1-4-1.4-4.2-3.5
			c-1.1-9.9-9.5-17.4-19.5-17.4c-8.1,0-15.4,5.1-18.4,12.6c-0.9,2.3-1.3,4.7-1.3,7v83.8c0,15.9,8.7,30.5,22.7,38.1
			c0.6,0.3,1.2,0.7,1.9,1c2.6,1.2,5.2,2.2,8,2.9c3.5,0.9,7.2,1.4,10.8,1.4c2.2,0,4,1.8,4,4v3.2c0,15.2,12.4,27.6,27.6,27.6
			c2.2,0,4,1.8,4,4L267.7,500L267.7,500z"/>
	</g>
	<g>
		<path class="st12" d="M232,379.5c-2.2,0-4-1.8-4-4v-70.7c0-2.2,1.8-4,4-4s4,1.8,4,4v70.7C236,377.7,234.2,379.5,232,379.5z"/>
	</g>
	<g>
		<path class="st12" d="M279.5,279c-2.2,0-4-1.8-4-4v-99.7c0-2.2,1.8-4,4-4c2.2,0,4,1.8,4,4V275C283.5,277.2,281.7,279,279.5,279
			L279.5,279z"/>
	</g>
	<g>
		<path class="st12" d="M327,279c-2.2,0-4-1.8-4-4v-99.7c0-2.2,1.8-4,4-4c2.2,0,4,1.8,4,4V275C331,277.2,329.2,279,327,279L327,279z
			"/>
	</g>
	<g>
		<path class="st12" d="M374.5,279c-2.2,0-4-1.8-4-4v-78.8c0-2.2,1.8-4,4-4s4,1.8,4,4V275C378.5,277.2,376.7,279,374.5,279z"/>
	</g>
	<g>
		<path class="st12" d="M202.8,353.4c-2.2,0-4-1.8-4-4v-24c0-2.2,1.8-4,4-4s4,1.8,4,4v24C206.8,351.7,205,353.4,202.8,353.4z"/>
	</g>
</g>
</svg>
